<mxfile host="app.diagrams.net" agent="Mozilla/5.0 (Macintosh; Intel Mac OS X 10_15_7) AppleWebKit/537.36 (KHTML, like Gecko) Chrome/131.0.0.0 Safari/537.36" version="26.0.6">
  <diagram id="R2lEEEUBdFMjLlhIrx00" name="Page-1">
    <mxGraphModel dx="2910" dy="2358" grid="1" gridSize="10" guides="1" tooltips="1" connect="1" arrows="1" fold="1" page="1" pageScale="1" pageWidth="850" pageHeight="1100" background="light-dark(#FFFFFF,#121212)" math="0" shadow="0" extFonts="Permanent Marker^https://fonts.googleapis.com/css?family=Permanent+Marker">
      <root>
        <mxCell id="0" />
        <mxCell id="1" parent="0" />
        <mxCell id="mup1xXLrEogH3Mq1CVz5-14" value="&lt;p style=&quot;caret-color: rgb(0, 0, 0); font-weight: 400; text-align: start; text-wrap-mode: wrap;&quot; data-pm-slice=&quot;1 1 [&amp;quot;ordered_list&amp;quot;,{&amp;quot;spread&amp;quot;:true,&amp;quot;startingNumber&amp;quot;:1,&amp;quot;start&amp;quot;:238,&amp;quot;end&amp;quot;:1972},&amp;quot;regular_list_item&amp;quot;,{&amp;quot;start&amp;quot;:440,&amp;quot;end&amp;quot;:623}]&quot;&gt;&lt;strong&gt;Appointments&lt;/strong&gt;&lt;/p&gt;" style="shape=table;startSize=30;container=1;collapsible=1;childLayout=tableLayout;fixedRows=1;rowLines=0;fontStyle=1;align=center;resizeLast=1;html=1;labelBackgroundColor=none;fillColor=#F5AB50;strokeColor=#909090;fontColor=#1A1A1A;" vertex="1" parent="1">
          <mxGeometry x="250" y="-20" width="180" height="210" as="geometry" />
        </mxCell>
        <mxCell id="mup1xXLrEogH3Mq1CVz5-15" value="" style="shape=tableRow;horizontal=0;startSize=0;swimlaneHead=0;swimlaneBody=0;fillColor=none;collapsible=0;dropTarget=0;points=[[0,0.5],[1,0.5]];portConstraint=eastwest;top=0;left=0;right=0;bottom=1;labelBackgroundColor=none;strokeColor=#909090;fontColor=#1A1A1A;" vertex="1" parent="mup1xXLrEogH3Mq1CVz5-14">
          <mxGeometry y="30" width="180" height="30" as="geometry" />
        </mxCell>
        <mxCell id="mup1xXLrEogH3Mq1CVz5-16" value="PK" style="shape=partialRectangle;connectable=0;fillColor=none;top=0;left=0;bottom=0;right=0;fontStyle=1;overflow=hidden;whiteSpace=wrap;html=1;labelBackgroundColor=none;strokeColor=#909090;fontColor=#1A1A1A;" vertex="1" parent="mup1xXLrEogH3Mq1CVz5-15">
          <mxGeometry width="30" height="30" as="geometry">
            <mxRectangle width="30" height="30" as="alternateBounds" />
          </mxGeometry>
        </mxCell>
        <mxCell id="mup1xXLrEogH3Mq1CVz5-17" value="&lt;p style=&quot;caret-color: rgb(0, 0, 0); font-weight: 400; text-decoration-line: none;&quot; data-pm-slice=&quot;1 1 [&amp;quot;ordered_list&amp;quot;,{&amp;quot;spread&amp;quot;:true,&amp;quot;startingNumber&amp;quot;:1,&amp;quot;start&amp;quot;:238,&amp;quot;end&amp;quot;:1972},&amp;quot;regular_list_item&amp;quot;,{&amp;quot;start&amp;quot;:440,&amp;quot;end&amp;quot;:623},&amp;quot;list&amp;quot;,{&amp;quot;spread&amp;quot;:false,&amp;quot;start&amp;quot;:464,&amp;quot;end&amp;quot;:623},&amp;quot;regular_list_item&amp;quot;,{&amp;quot;start&amp;quot;:464,&amp;quot;end&amp;quot;:494}]&quot;&gt;Appointment ID&lt;/p&gt;" style="shape=partialRectangle;connectable=0;fillColor=none;top=0;left=0;bottom=0;right=0;align=left;spacingLeft=6;fontStyle=5;overflow=hidden;whiteSpace=wrap;html=1;labelBackgroundColor=none;strokeColor=#909090;fontColor=#1A1A1A;" vertex="1" parent="mup1xXLrEogH3Mq1CVz5-15">
          <mxGeometry x="30" width="150" height="30" as="geometry">
            <mxRectangle width="150" height="30" as="alternateBounds" />
          </mxGeometry>
        </mxCell>
        <mxCell id="mup1xXLrEogH3Mq1CVz5-18" value="" style="shape=tableRow;horizontal=0;startSize=0;swimlaneHead=0;swimlaneBody=0;fillColor=none;collapsible=0;dropTarget=0;points=[[0,0.5],[1,0.5]];portConstraint=eastwest;top=0;left=0;right=0;bottom=0;labelBackgroundColor=none;strokeColor=#909090;fontColor=#1A1A1A;" vertex="1" parent="mup1xXLrEogH3Mq1CVz5-14">
          <mxGeometry y="60" width="180" height="30" as="geometry" />
        </mxCell>
        <mxCell id="mup1xXLrEogH3Mq1CVz5-19" value="FK" style="shape=partialRectangle;connectable=0;fillColor=none;top=0;left=0;bottom=0;right=0;editable=1;overflow=hidden;whiteSpace=wrap;html=1;labelBackgroundColor=none;strokeColor=#909090;fontColor=#1A1A1A;" vertex="1" parent="mup1xXLrEogH3Mq1CVz5-18">
          <mxGeometry width="30" height="30" as="geometry">
            <mxRectangle width="30" height="30" as="alternateBounds" />
          </mxGeometry>
        </mxCell>
        <mxCell id="mup1xXLrEogH3Mq1CVz5-20" value="&lt;p style=&quot;caret-color: rgb(0, 0, 0);&quot; data-pm-slice=&quot;1 1 [&amp;quot;ordered_list&amp;quot;,{&amp;quot;spread&amp;quot;:true,&amp;quot;startingNumber&amp;quot;:1,&amp;quot;start&amp;quot;:238,&amp;quot;end&amp;quot;:1972},&amp;quot;regular_list_item&amp;quot;,{&amp;quot;start&amp;quot;:440,&amp;quot;end&amp;quot;:623},&amp;quot;list&amp;quot;,{&amp;quot;spread&amp;quot;:false,&amp;quot;start&amp;quot;:464,&amp;quot;end&amp;quot;:623},&amp;quot;regular_list_item&amp;quot;,{&amp;quot;start&amp;quot;:498,&amp;quot;end&amp;quot;:524}]&quot;&gt;Patient ID&lt;/p&gt;" style="shape=partialRectangle;connectable=0;fillColor=none;top=0;left=0;bottom=0;right=0;align=left;spacingLeft=6;overflow=hidden;whiteSpace=wrap;html=1;labelBackgroundColor=none;strokeColor=#909090;fontColor=#1A1A1A;" vertex="1" parent="mup1xXLrEogH3Mq1CVz5-18">
          <mxGeometry x="30" width="150" height="30" as="geometry">
            <mxRectangle width="150" height="30" as="alternateBounds" />
          </mxGeometry>
        </mxCell>
        <mxCell id="mup1xXLrEogH3Mq1CVz5-21" value="" style="shape=tableRow;horizontal=0;startSize=0;swimlaneHead=0;swimlaneBody=0;fillColor=none;collapsible=0;dropTarget=0;points=[[0,0.5],[1,0.5]];portConstraint=eastwest;top=0;left=0;right=0;bottom=0;labelBackgroundColor=none;strokeColor=#909090;fontColor=#1A1A1A;" vertex="1" parent="mup1xXLrEogH3Mq1CVz5-14">
          <mxGeometry y="90" width="180" height="30" as="geometry" />
        </mxCell>
        <mxCell id="mup1xXLrEogH3Mq1CVz5-22" value="FK" style="shape=partialRectangle;connectable=0;fillColor=none;top=0;left=0;bottom=0;right=0;editable=1;overflow=hidden;whiteSpace=wrap;html=1;labelBackgroundColor=none;strokeColor=#909090;fontColor=#1A1A1A;" vertex="1" parent="mup1xXLrEogH3Mq1CVz5-21">
          <mxGeometry width="30" height="30" as="geometry">
            <mxRectangle width="30" height="30" as="alternateBounds" />
          </mxGeometry>
        </mxCell>
        <mxCell id="mup1xXLrEogH3Mq1CVz5-23" value="&lt;p style=&quot;caret-color: rgb(0, 0, 0);&quot; data-pm-slice=&quot;1 1 [&amp;quot;ordered_list&amp;quot;,{&amp;quot;spread&amp;quot;:true,&amp;quot;startingNumber&amp;quot;:1,&amp;quot;start&amp;quot;:238,&amp;quot;end&amp;quot;:1972},&amp;quot;regular_list_item&amp;quot;,{&amp;quot;start&amp;quot;:440,&amp;quot;end&amp;quot;:623},&amp;quot;list&amp;quot;,{&amp;quot;spread&amp;quot;:false,&amp;quot;start&amp;quot;:464,&amp;quot;end&amp;quot;:623},&amp;quot;regular_list_item&amp;quot;,{&amp;quot;start&amp;quot;:528,&amp;quot;end&amp;quot;:553}]&quot;&gt;Doctor ID&lt;/p&gt;" style="shape=partialRectangle;connectable=0;fillColor=none;top=0;left=0;bottom=0;right=0;align=left;spacingLeft=6;overflow=hidden;whiteSpace=wrap;html=1;labelBackgroundColor=none;strokeColor=#909090;fontColor=#1A1A1A;" vertex="1" parent="mup1xXLrEogH3Mq1CVz5-21">
          <mxGeometry x="30" width="150" height="30" as="geometry">
            <mxRectangle width="150" height="30" as="alternateBounds" />
          </mxGeometry>
        </mxCell>
        <mxCell id="mup1xXLrEogH3Mq1CVz5-24" value="" style="shape=tableRow;horizontal=0;startSize=0;swimlaneHead=0;swimlaneBody=0;fillColor=none;collapsible=0;dropTarget=0;points=[[0,0.5],[1,0.5]];portConstraint=eastwest;top=0;left=0;right=0;bottom=0;labelBackgroundColor=none;strokeColor=#909090;fontColor=#1A1A1A;" vertex="1" parent="mup1xXLrEogH3Mq1CVz5-14">
          <mxGeometry y="120" width="180" height="30" as="geometry" />
        </mxCell>
        <mxCell id="mup1xXLrEogH3Mq1CVz5-25" value="" style="shape=partialRectangle;connectable=0;fillColor=none;top=0;left=0;bottom=0;right=0;editable=1;overflow=hidden;whiteSpace=wrap;html=1;labelBackgroundColor=none;strokeColor=#909090;fontColor=#1A1A1A;" vertex="1" parent="mup1xXLrEogH3Mq1CVz5-24">
          <mxGeometry width="30" height="30" as="geometry">
            <mxRectangle width="30" height="30" as="alternateBounds" />
          </mxGeometry>
        </mxCell>
        <mxCell id="mup1xXLrEogH3Mq1CVz5-26" value="Date/Time" style="shape=partialRectangle;connectable=0;fillColor=none;top=0;left=0;bottom=0;right=0;align=left;spacingLeft=6;overflow=hidden;whiteSpace=wrap;html=1;labelBackgroundColor=none;strokeColor=#909090;fontColor=#1A1A1A;" vertex="1" parent="mup1xXLrEogH3Mq1CVz5-24">
          <mxGeometry x="30" width="150" height="30" as="geometry">
            <mxRectangle width="150" height="30" as="alternateBounds" />
          </mxGeometry>
        </mxCell>
        <mxCell id="mup1xXLrEogH3Mq1CVz5-66" value="" style="shape=tableRow;horizontal=0;startSize=0;swimlaneHead=0;swimlaneBody=0;fillColor=none;collapsible=0;dropTarget=0;points=[[0,0.5],[1,0.5]];portConstraint=eastwest;top=0;left=0;right=0;bottom=0;labelBackgroundColor=none;strokeColor=#909090;fontColor=#1A1A1A;" vertex="1" parent="mup1xXLrEogH3Mq1CVz5-14">
          <mxGeometry y="150" width="180" height="30" as="geometry" />
        </mxCell>
        <mxCell id="mup1xXLrEogH3Mq1CVz5-67" value="" style="shape=partialRectangle;connectable=0;fillColor=none;top=0;left=0;bottom=0;right=0;editable=1;overflow=hidden;whiteSpace=wrap;html=1;labelBackgroundColor=none;strokeColor=#909090;fontColor=#1A1A1A;" vertex="1" parent="mup1xXLrEogH3Mq1CVz5-66">
          <mxGeometry width="30" height="30" as="geometry">
            <mxRectangle width="30" height="30" as="alternateBounds" />
          </mxGeometry>
        </mxCell>
        <mxCell id="mup1xXLrEogH3Mq1CVz5-68" value="Prior/Onspot App..ts" style="shape=partialRectangle;connectable=0;fillColor=none;top=0;left=0;bottom=0;right=0;align=left;spacingLeft=6;overflow=hidden;whiteSpace=wrap;html=1;labelBackgroundColor=none;strokeColor=#909090;fontColor=#1A1A1A;" vertex="1" parent="mup1xXLrEogH3Mq1CVz5-66">
          <mxGeometry x="30" width="150" height="30" as="geometry">
            <mxRectangle width="150" height="30" as="alternateBounds" />
          </mxGeometry>
        </mxCell>
        <mxCell id="mup1xXLrEogH3Mq1CVz5-69" value="" style="shape=tableRow;horizontal=0;startSize=0;swimlaneHead=0;swimlaneBody=0;fillColor=none;collapsible=0;dropTarget=0;points=[[0,0.5],[1,0.5]];portConstraint=eastwest;top=0;left=0;right=0;bottom=0;labelBackgroundColor=none;strokeColor=#909090;fontColor=#1A1A1A;" vertex="1" parent="mup1xXLrEogH3Mq1CVz5-14">
          <mxGeometry y="180" width="180" height="30" as="geometry" />
        </mxCell>
        <mxCell id="mup1xXLrEogH3Mq1CVz5-70" value="" style="shape=partialRectangle;connectable=0;fillColor=none;top=0;left=0;bottom=0;right=0;editable=1;overflow=hidden;whiteSpace=wrap;html=1;labelBackgroundColor=none;strokeColor=#909090;fontColor=#1A1A1A;" vertex="1" parent="mup1xXLrEogH3Mq1CVz5-69">
          <mxGeometry width="30" height="30" as="geometry">
            <mxRectangle width="30" height="30" as="alternateBounds" />
          </mxGeometry>
        </mxCell>
        <mxCell id="mup1xXLrEogH3Mq1CVz5-71" value="Reason for visit&amp;nbsp;" style="shape=partialRectangle;connectable=0;fillColor=none;top=0;left=0;bottom=0;right=0;align=left;spacingLeft=6;overflow=hidden;whiteSpace=wrap;html=1;labelBackgroundColor=none;strokeColor=#909090;fontColor=#1A1A1A;" vertex="1" parent="mup1xXLrEogH3Mq1CVz5-69">
          <mxGeometry x="30" width="150" height="30" as="geometry">
            <mxRectangle width="150" height="30" as="alternateBounds" />
          </mxGeometry>
        </mxCell>
        <mxCell id="mup1xXLrEogH3Mq1CVz5-27" value="&lt;p style=&quot;caret-color: rgb(0, 0, 0); font-weight: 400; text-align: start; text-wrap-mode: wrap;&quot; data-pm-slice=&quot;1 1 [&amp;quot;ordered_list&amp;quot;,{&amp;quot;spread&amp;quot;:true,&amp;quot;startingNumber&amp;quot;:1,&amp;quot;start&amp;quot;:238,&amp;quot;end&amp;quot;:1972},&amp;quot;regular_list_item&amp;quot;,{&amp;quot;start&amp;quot;:625,&amp;quot;end&amp;quot;:808}]&quot;&gt;&lt;strong&gt;Doctors&lt;/strong&gt;&lt;/p&gt;" style="shape=table;startSize=30;container=1;collapsible=1;childLayout=tableLayout;fixedRows=1;rowLines=0;fontStyle=1;align=center;resizeLast=1;html=1;labelBackgroundColor=none;fillColor=#F5AB50;strokeColor=#909090;fontColor=#1A1A1A;" vertex="1" parent="1">
          <mxGeometry x="580" y="-20" width="180" height="210" as="geometry" />
        </mxCell>
        <mxCell id="mup1xXLrEogH3Mq1CVz5-28" value="" style="shape=tableRow;horizontal=0;startSize=0;swimlaneHead=0;swimlaneBody=0;fillColor=none;collapsible=0;dropTarget=0;points=[[0,0.5],[1,0.5]];portConstraint=eastwest;top=0;left=0;right=0;bottom=1;labelBackgroundColor=none;strokeColor=#909090;fontColor=#1A1A1A;" vertex="1" parent="mup1xXLrEogH3Mq1CVz5-27">
          <mxGeometry y="30" width="180" height="30" as="geometry" />
        </mxCell>
        <mxCell id="mup1xXLrEogH3Mq1CVz5-29" value="PK" style="shape=partialRectangle;connectable=0;fillColor=none;top=0;left=0;bottom=0;right=0;fontStyle=1;overflow=hidden;whiteSpace=wrap;html=1;labelBackgroundColor=none;strokeColor=#909090;fontColor=#1A1A1A;" vertex="1" parent="mup1xXLrEogH3Mq1CVz5-28">
          <mxGeometry width="30" height="30" as="geometry">
            <mxRectangle width="30" height="30" as="alternateBounds" />
          </mxGeometry>
        </mxCell>
        <mxCell id="mup1xXLrEogH3Mq1CVz5-30" value="&lt;p style=&quot;caret-color: rgb(0, 0, 0); font-weight: 400; text-decoration-line: none;&quot; data-pm-slice=&quot;1 1 [&amp;quot;ordered_list&amp;quot;,{&amp;quot;spread&amp;quot;:true,&amp;quot;startingNumber&amp;quot;:1,&amp;quot;start&amp;quot;:238,&amp;quot;end&amp;quot;:1972},&amp;quot;regular_list_item&amp;quot;,{&amp;quot;start&amp;quot;:625,&amp;quot;end&amp;quot;:808},&amp;quot;list&amp;quot;,{&amp;quot;spread&amp;quot;:false,&amp;quot;start&amp;quot;:644,&amp;quot;end&amp;quot;:808},&amp;quot;regular_list_item&amp;quot;,{&amp;quot;start&amp;quot;:644,&amp;quot;end&amp;quot;:669}]&quot;&gt;Doctor ID&lt;span class=&quot;Apple-converted-space&quot;&gt;&amp;nbsp;&lt;/span&gt;&lt;/p&gt;" style="shape=partialRectangle;connectable=0;fillColor=none;top=0;left=0;bottom=0;right=0;align=left;spacingLeft=6;fontStyle=5;overflow=hidden;whiteSpace=wrap;html=1;labelBackgroundColor=none;strokeColor=#909090;fontColor=#1A1A1A;" vertex="1" parent="mup1xXLrEogH3Mq1CVz5-28">
          <mxGeometry x="30" width="150" height="30" as="geometry">
            <mxRectangle width="150" height="30" as="alternateBounds" />
          </mxGeometry>
        </mxCell>
        <mxCell id="mup1xXLrEogH3Mq1CVz5-31" value="" style="shape=tableRow;horizontal=0;startSize=0;swimlaneHead=0;swimlaneBody=0;fillColor=none;collapsible=0;dropTarget=0;points=[[0,0.5],[1,0.5]];portConstraint=eastwest;top=0;left=0;right=0;bottom=0;labelBackgroundColor=none;strokeColor=#909090;fontColor=#1A1A1A;" vertex="1" parent="mup1xXLrEogH3Mq1CVz5-27">
          <mxGeometry y="60" width="180" height="30" as="geometry" />
        </mxCell>
        <mxCell id="mup1xXLrEogH3Mq1CVz5-32" value="" style="shape=partialRectangle;connectable=0;fillColor=none;top=0;left=0;bottom=0;right=0;editable=1;overflow=hidden;whiteSpace=wrap;html=1;labelBackgroundColor=none;strokeColor=#909090;fontColor=#1A1A1A;" vertex="1" parent="mup1xXLrEogH3Mq1CVz5-31">
          <mxGeometry width="30" height="30" as="geometry">
            <mxRectangle width="30" height="30" as="alternateBounds" />
          </mxGeometry>
        </mxCell>
        <mxCell id="mup1xXLrEogH3Mq1CVz5-33" value="&lt;p style=&quot;caret-color: rgb(0, 0, 0);&quot; data-pm-slice=&quot;1 1 [&amp;quot;ordered_list&amp;quot;,{&amp;quot;spread&amp;quot;:true,&amp;quot;startingNumber&amp;quot;:1,&amp;quot;start&amp;quot;:238,&amp;quot;end&amp;quot;:1972},&amp;quot;regular_list_item&amp;quot;,{&amp;quot;start&amp;quot;:625,&amp;quot;end&amp;quot;:808},&amp;quot;list&amp;quot;,{&amp;quot;spread&amp;quot;:false,&amp;quot;start&amp;quot;:644,&amp;quot;end&amp;quot;:808},&amp;quot;regular_list_item&amp;quot;,{&amp;quot;start&amp;quot;:673,&amp;quot;end&amp;quot;:679}]&quot;&gt;Name&lt;/p&gt;" style="shape=partialRectangle;connectable=0;fillColor=none;top=0;left=0;bottom=0;right=0;align=left;spacingLeft=6;overflow=hidden;whiteSpace=wrap;html=1;labelBackgroundColor=none;strokeColor=#909090;fontColor=#1A1A1A;" vertex="1" parent="mup1xXLrEogH3Mq1CVz5-31">
          <mxGeometry x="30" width="150" height="30" as="geometry">
            <mxRectangle width="150" height="30" as="alternateBounds" />
          </mxGeometry>
        </mxCell>
        <mxCell id="mup1xXLrEogH3Mq1CVz5-34" value="" style="shape=tableRow;horizontal=0;startSize=0;swimlaneHead=0;swimlaneBody=0;fillColor=none;collapsible=0;dropTarget=0;points=[[0,0.5],[1,0.5]];portConstraint=eastwest;top=0;left=0;right=0;bottom=0;labelBackgroundColor=none;strokeColor=#909090;fontColor=#1A1A1A;" vertex="1" parent="mup1xXLrEogH3Mq1CVz5-27">
          <mxGeometry y="90" width="180" height="30" as="geometry" />
        </mxCell>
        <mxCell id="mup1xXLrEogH3Mq1CVz5-35" value="" style="shape=partialRectangle;connectable=0;fillColor=none;top=0;left=0;bottom=0;right=0;editable=1;overflow=hidden;whiteSpace=wrap;html=1;labelBackgroundColor=none;strokeColor=#909090;fontColor=#1A1A1A;" vertex="1" parent="mup1xXLrEogH3Mq1CVz5-34">
          <mxGeometry width="30" height="30" as="geometry">
            <mxRectangle width="30" height="30" as="alternateBounds" />
          </mxGeometry>
        </mxCell>
        <mxCell id="mup1xXLrEogH3Mq1CVz5-36" value="Specality" style="shape=partialRectangle;connectable=0;fillColor=none;top=0;left=0;bottom=0;right=0;align=left;spacingLeft=6;overflow=hidden;whiteSpace=wrap;html=1;labelBackgroundColor=none;strokeColor=#909090;fontColor=#1A1A1A;" vertex="1" parent="mup1xXLrEogH3Mq1CVz5-34">
          <mxGeometry x="30" width="150" height="30" as="geometry">
            <mxRectangle width="150" height="30" as="alternateBounds" />
          </mxGeometry>
        </mxCell>
        <mxCell id="mup1xXLrEogH3Mq1CVz5-37" value="" style="shape=tableRow;horizontal=0;startSize=0;swimlaneHead=0;swimlaneBody=0;fillColor=none;collapsible=0;dropTarget=0;points=[[0,0.5],[1,0.5]];portConstraint=eastwest;top=0;left=0;right=0;bottom=0;labelBackgroundColor=none;strokeColor=#909090;fontColor=#1A1A1A;" vertex="1" parent="mup1xXLrEogH3Mq1CVz5-27">
          <mxGeometry y="120" width="180" height="30" as="geometry" />
        </mxCell>
        <mxCell id="mup1xXLrEogH3Mq1CVz5-38" value="" style="shape=partialRectangle;connectable=0;fillColor=none;top=0;left=0;bottom=0;right=0;editable=1;overflow=hidden;whiteSpace=wrap;html=1;labelBackgroundColor=none;strokeColor=#909090;fontColor=#1A1A1A;" vertex="1" parent="mup1xXLrEogH3Mq1CVz5-37">
          <mxGeometry width="30" height="30" as="geometry">
            <mxRectangle width="30" height="30" as="alternateBounds" />
          </mxGeometry>
        </mxCell>
        <mxCell id="mup1xXLrEogH3Mq1CVz5-39" value="&lt;p style=&quot;caret-color: rgb(0, 0, 0);&quot; data-pm-slice=&quot;1 1 [&amp;quot;ordered_list&amp;quot;,{&amp;quot;spread&amp;quot;:true,&amp;quot;startingNumber&amp;quot;:1,&amp;quot;start&amp;quot;:238,&amp;quot;end&amp;quot;:1972},&amp;quot;regular_list_item&amp;quot;,{&amp;quot;start&amp;quot;:625,&amp;quot;end&amp;quot;:808},&amp;quot;list&amp;quot;,{&amp;quot;spread&amp;quot;:false,&amp;quot;start&amp;quot;:644,&amp;quot;end&amp;quot;:808},&amp;quot;regular_list_item&amp;quot;,{&amp;quot;start&amp;quot;:732,&amp;quot;end&amp;quot;:753}]&quot;&gt;Phone No&lt;/p&gt;" style="shape=partialRectangle;connectable=0;fillColor=none;top=0;left=0;bottom=0;right=0;align=left;spacingLeft=6;overflow=hidden;whiteSpace=wrap;html=1;labelBackgroundColor=none;strokeColor=#909090;fontColor=#1A1A1A;" vertex="1" parent="mup1xXLrEogH3Mq1CVz5-37">
          <mxGeometry x="30" width="150" height="30" as="geometry">
            <mxRectangle width="150" height="30" as="alternateBounds" />
          </mxGeometry>
        </mxCell>
        <mxCell id="mup1xXLrEogH3Mq1CVz5-78" value="" style="shape=tableRow;horizontal=0;startSize=0;swimlaneHead=0;swimlaneBody=0;fillColor=none;collapsible=0;dropTarget=0;points=[[0,0.5],[1,0.5]];portConstraint=eastwest;top=0;left=0;right=0;bottom=0;labelBackgroundColor=none;strokeColor=#909090;fontColor=#1A1A1A;" vertex="1" parent="mup1xXLrEogH3Mq1CVz5-27">
          <mxGeometry y="150" width="180" height="30" as="geometry" />
        </mxCell>
        <mxCell id="mup1xXLrEogH3Mq1CVz5-79" value="" style="shape=partialRectangle;connectable=0;fillColor=none;top=0;left=0;bottom=0;right=0;editable=1;overflow=hidden;whiteSpace=wrap;html=1;labelBackgroundColor=none;strokeColor=#909090;fontColor=#1A1A1A;" vertex="1" parent="mup1xXLrEogH3Mq1CVz5-78">
          <mxGeometry width="30" height="30" as="geometry">
            <mxRectangle width="30" height="30" as="alternateBounds" />
          </mxGeometry>
        </mxCell>
        <mxCell id="mup1xXLrEogH3Mq1CVz5-80" value="&lt;p style=&quot;caret-color: rgb(0, 0, 0);&quot; data-pm-slice=&quot;1 1 [&amp;quot;ordered_list&amp;quot;,{&amp;quot;spread&amp;quot;:true,&amp;quot;startingNumber&amp;quot;:1,&amp;quot;start&amp;quot;:238,&amp;quot;end&amp;quot;:1972},&amp;quot;regular_list_item&amp;quot;,{&amp;quot;start&amp;quot;:625,&amp;quot;end&amp;quot;:808},&amp;quot;list&amp;quot;,{&amp;quot;spread&amp;quot;:false,&amp;quot;start&amp;quot;:644,&amp;quot;end&amp;quot;:808},&amp;quot;regular_list_item&amp;quot;,{&amp;quot;start&amp;quot;:757,&amp;quot;end&amp;quot;:781}]&quot;&gt;Room/Office&amp;nbsp;&lt;/p&gt;" style="shape=partialRectangle;connectable=0;fillColor=none;top=0;left=0;bottom=0;right=0;align=left;spacingLeft=6;overflow=hidden;whiteSpace=wrap;html=1;labelBackgroundColor=none;strokeColor=#909090;fontColor=#1A1A1A;" vertex="1" parent="mup1xXLrEogH3Mq1CVz5-78">
          <mxGeometry x="30" width="150" height="30" as="geometry">
            <mxRectangle width="150" height="30" as="alternateBounds" />
          </mxGeometry>
        </mxCell>
        <mxCell id="mup1xXLrEogH3Mq1CVz5-81" value="" style="shape=tableRow;horizontal=0;startSize=0;swimlaneHead=0;swimlaneBody=0;fillColor=none;collapsible=0;dropTarget=0;points=[[0,0.5],[1,0.5]];portConstraint=eastwest;top=0;left=0;right=0;bottom=0;labelBackgroundColor=none;strokeColor=#909090;fontColor=#1A1A1A;" vertex="1" parent="mup1xXLrEogH3Mq1CVz5-27">
          <mxGeometry y="180" width="180" height="30" as="geometry" />
        </mxCell>
        <mxCell id="mup1xXLrEogH3Mq1CVz5-82" value="" style="shape=partialRectangle;connectable=0;fillColor=none;top=0;left=0;bottom=0;right=0;editable=1;overflow=hidden;whiteSpace=wrap;html=1;labelBackgroundColor=none;strokeColor=#909090;fontColor=#1A1A1A;" vertex="1" parent="mup1xXLrEogH3Mq1CVz5-81">
          <mxGeometry width="30" height="30" as="geometry">
            <mxRectangle width="30" height="30" as="alternateBounds" />
          </mxGeometry>
        </mxCell>
        <mxCell id="mup1xXLrEogH3Mq1CVz5-83" value="&lt;p style=&quot;caret-color: rgb(0, 0, 0);&quot; data-pm-slice=&quot;1 1 [&amp;quot;ordered_list&amp;quot;,{&amp;quot;spread&amp;quot;:true,&amp;quot;startingNumber&amp;quot;:1,&amp;quot;start&amp;quot;:238,&amp;quot;end&amp;quot;:1972},&amp;quot;regular_list_item&amp;quot;,{&amp;quot;start&amp;quot;:625,&amp;quot;end&amp;quot;:808},&amp;quot;list&amp;quot;,{&amp;quot;spread&amp;quot;:false,&amp;quot;start&amp;quot;:644,&amp;quot;end&amp;quot;:808},&amp;quot;regular_list_item&amp;quot;,{&amp;quot;start&amp;quot;:785,&amp;quot;end&amp;quot;:808}]&quot;&gt;Availability Schedule&lt;/p&gt;" style="shape=partialRectangle;connectable=0;fillColor=none;top=0;left=0;bottom=0;right=0;align=left;spacingLeft=6;overflow=hidden;whiteSpace=wrap;html=1;labelBackgroundColor=none;strokeColor=#909090;fontColor=#1A1A1A;" vertex="1" parent="mup1xXLrEogH3Mq1CVz5-81">
          <mxGeometry x="30" width="150" height="30" as="geometry">
            <mxRectangle width="150" height="30" as="alternateBounds" />
          </mxGeometry>
        </mxCell>
        <mxCell id="mup1xXLrEogH3Mq1CVz5-40" value="&lt;p style=&quot;caret-color: rgb(0, 0, 0); font-weight: 400; text-align: start; text-wrap-mode: wrap;&quot; data-pm-slice=&quot;1 1 [&amp;quot;ordered_list&amp;quot;,{&amp;quot;spread&amp;quot;:true,&amp;quot;startingNumber&amp;quot;:1,&amp;quot;start&amp;quot;:238,&amp;quot;end&amp;quot;:1972},&amp;quot;regular_list_item&amp;quot;,{&amp;quot;start&amp;quot;:810,&amp;quot;end&amp;quot;:999}]&quot;&gt;&lt;strong&gt;Rooms&lt;/strong&gt;&lt;/p&gt;" style="shape=table;startSize=30;container=1;collapsible=1;childLayout=tableLayout;fixedRows=1;rowLines=0;fontStyle=1;align=center;resizeLast=1;html=1;labelBackgroundColor=none;fillColor=#F5AB50;strokeColor=#909090;fontColor=#1A1A1A;" vertex="1" parent="1">
          <mxGeometry x="20" y="360" width="310" height="280" as="geometry" />
        </mxCell>
        <mxCell id="mup1xXLrEogH3Mq1CVz5-41" value="" style="shape=tableRow;horizontal=0;startSize=0;swimlaneHead=0;swimlaneBody=0;fillColor=none;collapsible=0;dropTarget=0;points=[[0,0.5],[1,0.5]];portConstraint=eastwest;top=0;left=0;right=0;bottom=1;labelBackgroundColor=none;strokeColor=#909090;fontColor=#1A1A1A;" vertex="1" parent="mup1xXLrEogH3Mq1CVz5-40">
          <mxGeometry y="30" width="310" height="30" as="geometry" />
        </mxCell>
        <mxCell id="mup1xXLrEogH3Mq1CVz5-42" value="PK" style="shape=partialRectangle;connectable=0;fillColor=none;top=0;left=0;bottom=0;right=0;fontStyle=1;overflow=hidden;whiteSpace=wrap;html=1;labelBackgroundColor=none;strokeColor=#909090;fontColor=#1A1A1A;" vertex="1" parent="mup1xXLrEogH3Mq1CVz5-41">
          <mxGeometry width="20" height="30" as="geometry">
            <mxRectangle width="20" height="30" as="alternateBounds" />
          </mxGeometry>
        </mxCell>
        <mxCell id="mup1xXLrEogH3Mq1CVz5-43" value="&lt;p style=&quot;caret-color: rgb(0, 0, 0); font-weight: 400; text-decoration-line: none;&quot; data-pm-slice=&quot;1 1 [&amp;quot;ordered_list&amp;quot;,{&amp;quot;spread&amp;quot;:true,&amp;quot;startingNumber&amp;quot;:1,&amp;quot;start&amp;quot;:238,&amp;quot;end&amp;quot;:1972},&amp;quot;regular_list_item&amp;quot;,{&amp;quot;start&amp;quot;:810,&amp;quot;end&amp;quot;:999},&amp;quot;list&amp;quot;,{&amp;quot;spread&amp;quot;:false,&amp;quot;start&amp;quot;:827,&amp;quot;end&amp;quot;:999},&amp;quot;regular_list_item&amp;quot;,{&amp;quot;start&amp;quot;:827,&amp;quot;end&amp;quot;:850}]&quot;&gt;Room ID&lt;/p&gt;" style="shape=partialRectangle;connectable=0;fillColor=none;top=0;left=0;bottom=0;right=0;align=left;spacingLeft=6;fontStyle=5;overflow=hidden;whiteSpace=wrap;html=1;labelBackgroundColor=none;strokeColor=#909090;fontColor=#1A1A1A;" vertex="1" parent="mup1xXLrEogH3Mq1CVz5-41">
          <mxGeometry x="20" width="290" height="30" as="geometry">
            <mxRectangle width="290" height="30" as="alternateBounds" />
          </mxGeometry>
        </mxCell>
        <mxCell id="mup1xXLrEogH3Mq1CVz5-44" value="" style="shape=tableRow;horizontal=0;startSize=0;swimlaneHead=0;swimlaneBody=0;fillColor=none;collapsible=0;dropTarget=0;points=[[0,0.5],[1,0.5]];portConstraint=eastwest;top=0;left=0;right=0;bottom=0;labelBackgroundColor=none;strokeColor=#909090;fontColor=#1A1A1A;" vertex="1" parent="mup1xXLrEogH3Mq1CVz5-40">
          <mxGeometry y="60" width="310" height="30" as="geometry" />
        </mxCell>
        <mxCell id="mup1xXLrEogH3Mq1CVz5-45" value="" style="shape=partialRectangle;connectable=0;fillColor=none;top=0;left=0;bottom=0;right=0;editable=1;overflow=hidden;whiteSpace=wrap;html=1;labelBackgroundColor=none;strokeColor=#909090;fontColor=#1A1A1A;" vertex="1" parent="mup1xXLrEogH3Mq1CVz5-44">
          <mxGeometry width="20" height="30" as="geometry">
            <mxRectangle width="20" height="30" as="alternateBounds" />
          </mxGeometry>
        </mxCell>
        <mxCell id="mup1xXLrEogH3Mq1CVz5-46" value="&lt;p style=&quot;caret-color: rgb(0, 0, 0);&quot; data-pm-slice=&quot;1 1 [&amp;quot;ordered_list&amp;quot;,{&amp;quot;spread&amp;quot;:true,&amp;quot;startingNumber&amp;quot;:1,&amp;quot;start&amp;quot;:238,&amp;quot;end&amp;quot;:1972},&amp;quot;regular_list_item&amp;quot;,{&amp;quot;start&amp;quot;:810,&amp;quot;end&amp;quot;:999},&amp;quot;list&amp;quot;,{&amp;quot;spread&amp;quot;:false,&amp;quot;start&amp;quot;:827,&amp;quot;end&amp;quot;:999},&amp;quot;regular_list_item&amp;quot;,{&amp;quot;start&amp;quot;:854,&amp;quot;end&amp;quot;:891}]&quot;&gt;Room Type&lt;span class=&quot;Apple-converted-space&quot;&gt;&amp;nbsp;&lt;/span&gt;&lt;span style=&quot;background-color: transparent; color: light-dark(rgb(0, 0, 0), rgb(255, 255, 255));&quot;&gt;(ICU, General, VIP, etc.)&lt;/span&gt;&lt;/p&gt;" style="shape=partialRectangle;connectable=0;fillColor=none;top=0;left=0;bottom=0;right=0;align=left;spacingLeft=6;overflow=hidden;whiteSpace=wrap;html=1;labelBackgroundColor=none;strokeColor=#909090;fontColor=#1A1A1A;" vertex="1" parent="mup1xXLrEogH3Mq1CVz5-44">
          <mxGeometry x="20" width="290" height="30" as="geometry">
            <mxRectangle width="290" height="30" as="alternateBounds" />
          </mxGeometry>
        </mxCell>
        <mxCell id="mup1xXLrEogH3Mq1CVz5-47" value="" style="shape=tableRow;horizontal=0;startSize=0;swimlaneHead=0;swimlaneBody=0;fillColor=none;collapsible=0;dropTarget=0;points=[[0,0.5],[1,0.5]];portConstraint=eastwest;top=0;left=0;right=0;bottom=0;labelBackgroundColor=none;strokeColor=#909090;fontColor=#1A1A1A;" vertex="1" parent="mup1xXLrEogH3Mq1CVz5-40">
          <mxGeometry y="90" width="310" height="30" as="geometry" />
        </mxCell>
        <mxCell id="mup1xXLrEogH3Mq1CVz5-48" value="" style="shape=partialRectangle;connectable=0;fillColor=none;top=0;left=0;bottom=0;right=0;editable=1;overflow=hidden;whiteSpace=wrap;html=1;labelBackgroundColor=none;strokeColor=#909090;fontColor=#1A1A1A;" vertex="1" parent="mup1xXLrEogH3Mq1CVz5-47">
          <mxGeometry width="20" height="30" as="geometry">
            <mxRectangle width="20" height="30" as="alternateBounds" />
          </mxGeometry>
        </mxCell>
        <mxCell id="mup1xXLrEogH3Mq1CVz5-49" value="Room Avaliblety(Yes/ NO)" style="shape=partialRectangle;connectable=0;fillColor=none;top=0;left=0;bottom=0;right=0;align=left;spacingLeft=6;overflow=hidden;whiteSpace=wrap;html=1;labelBackgroundColor=none;strokeColor=#909090;fontColor=#1A1A1A;" vertex="1" parent="mup1xXLrEogH3Mq1CVz5-47">
          <mxGeometry x="20" width="290" height="30" as="geometry">
            <mxRectangle width="290" height="30" as="alternateBounds" />
          </mxGeometry>
        </mxCell>
        <mxCell id="mup1xXLrEogH3Mq1CVz5-50" value="" style="shape=tableRow;horizontal=0;startSize=0;swimlaneHead=0;swimlaneBody=0;fillColor=none;collapsible=0;dropTarget=0;points=[[0,0.5],[1,0.5]];portConstraint=eastwest;top=0;left=0;right=0;bottom=0;labelBackgroundColor=none;strokeColor=#909090;fontColor=#1A1A1A;" vertex="1" parent="mup1xXLrEogH3Mq1CVz5-40">
          <mxGeometry y="120" width="310" height="30" as="geometry" />
        </mxCell>
        <mxCell id="mup1xXLrEogH3Mq1CVz5-51" value="" style="shape=partialRectangle;connectable=0;fillColor=none;top=0;left=0;bottom=0;right=0;editable=1;overflow=hidden;whiteSpace=wrap;html=1;labelBackgroundColor=none;strokeColor=#909090;fontColor=#1A1A1A;" vertex="1" parent="mup1xXLrEogH3Mq1CVz5-50">
          <mxGeometry width="20" height="30" as="geometry">
            <mxRectangle width="20" height="30" as="alternateBounds" />
          </mxGeometry>
        </mxCell>
        <mxCell id="mup1xXLrEogH3Mq1CVz5-52" value="&lt;p style=&quot;caret-color: rgb(0, 0, 0);&quot; data-pm-slice=&quot;1 1 [&amp;quot;ordered_list&amp;quot;,{&amp;quot;spread&amp;quot;:true,&amp;quot;startingNumber&amp;quot;:1,&amp;quot;start&amp;quot;:238,&amp;quot;end&amp;quot;:1972},&amp;quot;regular_list_item&amp;quot;,{&amp;quot;start&amp;quot;:810,&amp;quot;end&amp;quot;:999},&amp;quot;list&amp;quot;,{&amp;quot;spread&amp;quot;:false,&amp;quot;start&amp;quot;:827,&amp;quot;end&amp;quot;:999},&amp;quot;regular_list_item&amp;quot;,{&amp;quot;start&amp;quot;:922,&amp;quot;end&amp;quot;:936}]&quot;&gt;Cost Per Day(24 hrs)&lt;/p&gt;" style="shape=partialRectangle;connectable=0;fillColor=none;top=0;left=0;bottom=0;right=0;align=left;spacingLeft=6;overflow=hidden;whiteSpace=wrap;html=1;labelBackgroundColor=none;strokeColor=#909090;fontColor=#1A1A1A;" vertex="1" parent="mup1xXLrEogH3Mq1CVz5-50">
          <mxGeometry x="20" width="290" height="30" as="geometry">
            <mxRectangle width="290" height="30" as="alternateBounds" />
          </mxGeometry>
        </mxCell>
        <mxCell id="mup1xXLrEogH3Mq1CVz5-87" value="" style="shape=tableRow;horizontal=0;startSize=0;swimlaneHead=0;swimlaneBody=0;fillColor=none;collapsible=0;dropTarget=0;points=[[0,0.5],[1,0.5]];portConstraint=eastwest;top=0;left=0;right=0;bottom=0;labelBackgroundColor=none;strokeColor=#909090;fontColor=#1A1A1A;" vertex="1" parent="mup1xXLrEogH3Mq1CVz5-40">
          <mxGeometry y="150" width="310" height="60" as="geometry" />
        </mxCell>
        <mxCell id="mup1xXLrEogH3Mq1CVz5-88" value="" style="shape=partialRectangle;connectable=0;fillColor=none;top=0;left=0;bottom=0;right=0;editable=1;overflow=hidden;whiteSpace=wrap;html=1;labelBackgroundColor=none;strokeColor=#909090;fontColor=#1A1A1A;" vertex="1" parent="mup1xXLrEogH3Mq1CVz5-87">
          <mxGeometry width="20" height="60" as="geometry">
            <mxRectangle width="20" height="60" as="alternateBounds" />
          </mxGeometry>
        </mxCell>
        <mxCell id="mup1xXLrEogH3Mq1CVz5-89" value="&lt;p style=&quot;caret-color: rgb(0, 0, 0);&quot; data-pm-slice=&quot;1 1 [&amp;quot;ordered_list&amp;quot;,{&amp;quot;spread&amp;quot;:true,&amp;quot;startingNumber&amp;quot;:1,&amp;quot;start&amp;quot;:238,&amp;quot;end&amp;quot;:1972},&amp;quot;regular_list_item&amp;quot;,{&amp;quot;start&amp;quot;:810,&amp;quot;end&amp;quot;:999},&amp;quot;list&amp;quot;,{&amp;quot;spread&amp;quot;:false,&amp;quot;start&amp;quot;:827,&amp;quot;end&amp;quot;:999},&amp;quot;regular_list_item&amp;quot;,{&amp;quot;start&amp;quot;:940,&amp;quot;end&amp;quot;:999}]&quot;&gt;Assigned Patient ID (Foreign Key, nullable if unassigned)&lt;/p&gt;" style="shape=partialRectangle;connectable=0;fillColor=none;top=0;left=0;bottom=0;right=0;align=left;spacingLeft=6;overflow=hidden;whiteSpace=wrap;html=1;labelBackgroundColor=none;strokeColor=#909090;fontColor=#1A1A1A;" vertex="1" parent="mup1xXLrEogH3Mq1CVz5-87">
          <mxGeometry x="20" width="290" height="60" as="geometry">
            <mxRectangle width="290" height="60" as="alternateBounds" />
          </mxGeometry>
        </mxCell>
        <mxCell id="mup1xXLrEogH3Mq1CVz5-211" value="" style="shape=tableRow;horizontal=0;startSize=0;swimlaneHead=0;swimlaneBody=0;fillColor=none;collapsible=0;dropTarget=0;points=[[0,0.5],[1,0.5]];portConstraint=eastwest;top=0;left=0;right=0;bottom=0;labelBackgroundColor=none;strokeColor=#909090;fontColor=#1A1A1A;" vertex="1" parent="mup1xXLrEogH3Mq1CVz5-40">
          <mxGeometry y="210" width="310" height="60" as="geometry" />
        </mxCell>
        <mxCell id="mup1xXLrEogH3Mq1CVz5-212" value="" style="shape=partialRectangle;connectable=0;fillColor=none;top=0;left=0;bottom=0;right=0;editable=1;overflow=hidden;whiteSpace=wrap;html=1;labelBackgroundColor=none;strokeColor=#909090;fontColor=#1A1A1A;" vertex="1" parent="mup1xXLrEogH3Mq1CVz5-211">
          <mxGeometry width="20" height="60" as="geometry">
            <mxRectangle width="20" height="60" as="alternateBounds" />
          </mxGeometry>
        </mxCell>
        <mxCell id="mup1xXLrEogH3Mq1CVz5-213" value="&lt;p style=&quot;caret-color: rgb(0, 0, 0);&quot; data-pm-slice=&quot;1 1 [&amp;quot;ordered_list&amp;quot;,{&amp;quot;spread&amp;quot;:true,&amp;quot;startingNumber&amp;quot;:1,&amp;quot;start&amp;quot;:238,&amp;quot;end&amp;quot;:1972},&amp;quot;regular_list_item&amp;quot;,{&amp;quot;start&amp;quot;:810,&amp;quot;end&amp;quot;:999},&amp;quot;list&amp;quot;,{&amp;quot;spread&amp;quot;:false,&amp;quot;start&amp;quot;:827,&amp;quot;end&amp;quot;:999},&amp;quot;regular_list_item&amp;quot;,{&amp;quot;start&amp;quot;:940,&amp;quot;end&amp;quot;:999}]&quot;&gt;Assigned Patient ID (Foreign Key, nullable if unassigned)&lt;/p&gt;" style="shape=partialRectangle;connectable=0;fillColor=none;top=0;left=0;bottom=0;right=0;align=left;spacingLeft=6;overflow=hidden;whiteSpace=wrap;html=1;labelBackgroundColor=none;strokeColor=#909090;fontColor=#1A1A1A;" vertex="1" parent="mup1xXLrEogH3Mq1CVz5-211">
          <mxGeometry x="20" width="290" height="60" as="geometry">
            <mxRectangle width="290" height="60" as="alternateBounds" />
          </mxGeometry>
        </mxCell>
        <mxCell id="mup1xXLrEogH3Mq1CVz5-1" value="&lt;p style=&quot;caret-color: rgb(0, 0, 0); font-weight: 400; text-align: start; text-wrap-mode: wrap;&quot; data-pm-slice=&quot;1 1 [&amp;quot;ordered_list&amp;quot;,{&amp;quot;spread&amp;quot;:true,&amp;quot;startingNumber&amp;quot;:1,&amp;quot;start&amp;quot;:238,&amp;quot;end&amp;quot;:1972},&amp;quot;regular_list_item&amp;quot;,{&amp;quot;start&amp;quot;:238,&amp;quot;end&amp;quot;:438}]&quot;&gt;&lt;strong&gt;Patients&lt;/strong&gt;&lt;/p&gt;" style="shape=table;startSize=30;container=1;collapsible=1;childLayout=tableLayout;fixedRows=1;rowLines=0;fontStyle=1;align=center;resizeLast=1;html=1;labelBackgroundColor=none;fillColor=#F5AB50;strokeColor=#909090;fontColor=#1A1A1A;" vertex="1" parent="1">
          <mxGeometry x="-120" y="-100" width="180" height="390" as="geometry" />
        </mxCell>
        <mxCell id="mup1xXLrEogH3Mq1CVz5-2" value="" style="shape=tableRow;horizontal=0;startSize=0;swimlaneHead=0;swimlaneBody=0;fillColor=none;collapsible=0;dropTarget=0;points=[[0,0.5],[1,0.5]];portConstraint=eastwest;top=0;left=0;right=0;bottom=1;labelBackgroundColor=none;strokeColor=#909090;fontColor=#1A1A1A;" vertex="1" parent="mup1xXLrEogH3Mq1CVz5-1">
          <mxGeometry y="30" width="180" height="30" as="geometry" />
        </mxCell>
        <mxCell id="mup1xXLrEogH3Mq1CVz5-3" value="PK" style="shape=partialRectangle;connectable=0;fillColor=none;top=0;left=0;bottom=0;right=0;fontStyle=1;overflow=hidden;whiteSpace=wrap;html=1;labelBackgroundColor=none;strokeColor=#909090;fontColor=#1A1A1A;" vertex="1" parent="mup1xXLrEogH3Mq1CVz5-2">
          <mxGeometry width="30" height="30" as="geometry">
            <mxRectangle width="30" height="30" as="alternateBounds" />
          </mxGeometry>
        </mxCell>
        <mxCell id="mup1xXLrEogH3Mq1CVz5-4" value="&lt;p style=&quot;caret-color: rgb(0, 0, 0); font-weight: 400; text-decoration-line: none;&quot; data-pm-slice=&quot;1 1 [&amp;quot;ordered_list&amp;quot;,{&amp;quot;spread&amp;quot;:true,&amp;quot;startingNumber&amp;quot;:1,&amp;quot;start&amp;quot;:238,&amp;quot;end&amp;quot;:1972},&amp;quot;regular_list_item&amp;quot;,{&amp;quot;start&amp;quot;:238,&amp;quot;end&amp;quot;:438},&amp;quot;list&amp;quot;,{&amp;quot;spread&amp;quot;:false,&amp;quot;start&amp;quot;:258,&amp;quot;end&amp;quot;:438},&amp;quot;regular_list_item&amp;quot;,{&amp;quot;start&amp;quot;:258,&amp;quot;end&amp;quot;:284}]&quot;&gt;Patient ID&lt;/p&gt;" style="shape=partialRectangle;connectable=0;fillColor=none;top=0;left=0;bottom=0;right=0;align=left;spacingLeft=6;fontStyle=5;overflow=hidden;whiteSpace=wrap;html=1;labelBackgroundColor=none;strokeColor=#909090;fontColor=#1A1A1A;" vertex="1" parent="mup1xXLrEogH3Mq1CVz5-2">
          <mxGeometry x="30" width="150" height="30" as="geometry">
            <mxRectangle width="150" height="30" as="alternateBounds" />
          </mxGeometry>
        </mxCell>
        <mxCell id="mup1xXLrEogH3Mq1CVz5-5" value="" style="shape=tableRow;horizontal=0;startSize=0;swimlaneHead=0;swimlaneBody=0;fillColor=none;collapsible=0;dropTarget=0;points=[[0,0.5],[1,0.5]];portConstraint=eastwest;top=0;left=0;right=0;bottom=0;labelBackgroundColor=none;strokeColor=#909090;fontColor=#1A1A1A;" vertex="1" parent="mup1xXLrEogH3Mq1CVz5-1">
          <mxGeometry y="60" width="180" height="30" as="geometry" />
        </mxCell>
        <mxCell id="mup1xXLrEogH3Mq1CVz5-6" value="" style="shape=partialRectangle;connectable=0;fillColor=none;top=0;left=0;bottom=0;right=0;editable=1;overflow=hidden;whiteSpace=wrap;html=1;labelBackgroundColor=none;strokeColor=#909090;fontColor=#1A1A1A;" vertex="1" parent="mup1xXLrEogH3Mq1CVz5-5">
          <mxGeometry width="30" height="30" as="geometry">
            <mxRectangle width="30" height="30" as="alternateBounds" />
          </mxGeometry>
        </mxCell>
        <mxCell id="mup1xXLrEogH3Mq1CVz5-7" value="&lt;p style=&quot;caret-color: rgb(0, 0, 0);&quot; data-pm-slice=&quot;1 1 [&amp;quot;ordered_list&amp;quot;,{&amp;quot;spread&amp;quot;:true,&amp;quot;startingNumber&amp;quot;:1,&amp;quot;start&amp;quot;:238,&amp;quot;end&amp;quot;:1972},&amp;quot;regular_list_item&amp;quot;,{&amp;quot;start&amp;quot;:238,&amp;quot;end&amp;quot;:438},&amp;quot;list&amp;quot;,{&amp;quot;spread&amp;quot;:false,&amp;quot;start&amp;quot;:258,&amp;quot;end&amp;quot;:438},&amp;quot;regular_list_item&amp;quot;,{&amp;quot;start&amp;quot;:288,&amp;quot;end&amp;quot;:294}]&quot;&gt;First Name&lt;/p&gt;" style="shape=partialRectangle;connectable=0;fillColor=none;top=0;left=0;bottom=0;right=0;align=left;spacingLeft=6;overflow=hidden;whiteSpace=wrap;html=1;labelBackgroundColor=none;strokeColor=#909090;fontColor=#1A1A1A;" vertex="1" parent="mup1xXLrEogH3Mq1CVz5-5">
          <mxGeometry x="30" width="150" height="30" as="geometry">
            <mxRectangle width="150" height="30" as="alternateBounds" />
          </mxGeometry>
        </mxCell>
        <mxCell id="mup1xXLrEogH3Mq1CVz5-218" value="" style="shape=tableRow;horizontal=0;startSize=0;swimlaneHead=0;swimlaneBody=0;fillColor=none;collapsible=0;dropTarget=0;points=[[0,0.5],[1,0.5]];portConstraint=eastwest;top=0;left=0;right=0;bottom=0;labelBackgroundColor=none;strokeColor=#909090;fontColor=#1A1A1A;" vertex="1" parent="mup1xXLrEogH3Mq1CVz5-1">
          <mxGeometry y="90" width="180" height="30" as="geometry" />
        </mxCell>
        <mxCell id="mup1xXLrEogH3Mq1CVz5-219" value="" style="shape=partialRectangle;connectable=0;fillColor=none;top=0;left=0;bottom=0;right=0;editable=1;overflow=hidden;whiteSpace=wrap;html=1;labelBackgroundColor=none;strokeColor=#909090;fontColor=#1A1A1A;" vertex="1" parent="mup1xXLrEogH3Mq1CVz5-218">
          <mxGeometry width="30" height="30" as="geometry">
            <mxRectangle width="30" height="30" as="alternateBounds" />
          </mxGeometry>
        </mxCell>
        <mxCell id="mup1xXLrEogH3Mq1CVz5-220" value="&lt;p style=&quot;caret-color: rgb(0, 0, 0);&quot; data-pm-slice=&quot;1 1 [&amp;quot;ordered_list&amp;quot;,{&amp;quot;spread&amp;quot;:true,&amp;quot;startingNumber&amp;quot;:1,&amp;quot;start&amp;quot;:238,&amp;quot;end&amp;quot;:1972},&amp;quot;regular_list_item&amp;quot;,{&amp;quot;start&amp;quot;:238,&amp;quot;end&amp;quot;:438},&amp;quot;list&amp;quot;,{&amp;quot;spread&amp;quot;:false,&amp;quot;start&amp;quot;:258,&amp;quot;end&amp;quot;:438},&amp;quot;regular_list_item&amp;quot;,{&amp;quot;start&amp;quot;:288,&amp;quot;end&amp;quot;:294}]&quot;&gt;Last Name&lt;/p&gt;" style="shape=partialRectangle;connectable=0;fillColor=none;top=0;left=0;bottom=0;right=0;align=left;spacingLeft=6;overflow=hidden;whiteSpace=wrap;html=1;labelBackgroundColor=none;strokeColor=#909090;fontColor=#1A1A1A;" vertex="1" parent="mup1xXLrEogH3Mq1CVz5-218">
          <mxGeometry x="30" width="150" height="30" as="geometry">
            <mxRectangle width="150" height="30" as="alternateBounds" />
          </mxGeometry>
        </mxCell>
        <mxCell id="mup1xXLrEogH3Mq1CVz5-8" value="" style="shape=tableRow;horizontal=0;startSize=0;swimlaneHead=0;swimlaneBody=0;fillColor=none;collapsible=0;dropTarget=0;points=[[0,0.5],[1,0.5]];portConstraint=eastwest;top=0;left=0;right=0;bottom=0;labelBackgroundColor=none;strokeColor=#909090;fontColor=#1A1A1A;" vertex="1" parent="mup1xXLrEogH3Mq1CVz5-1">
          <mxGeometry y="120" width="180" height="30" as="geometry" />
        </mxCell>
        <mxCell id="mup1xXLrEogH3Mq1CVz5-9" value="" style="shape=partialRectangle;connectable=0;fillColor=none;top=0;left=0;bottom=0;right=0;editable=1;overflow=hidden;whiteSpace=wrap;html=1;labelBackgroundColor=none;strokeColor=#909090;fontColor=#1A1A1A;" vertex="1" parent="mup1xXLrEogH3Mq1CVz5-8">
          <mxGeometry width="30" height="30" as="geometry">
            <mxRectangle width="30" height="30" as="alternateBounds" />
          </mxGeometry>
        </mxCell>
        <mxCell id="mup1xXLrEogH3Mq1CVz5-10" value="Age" style="shape=partialRectangle;connectable=0;fillColor=none;top=0;left=0;bottom=0;right=0;align=left;spacingLeft=6;overflow=hidden;whiteSpace=wrap;html=1;labelBackgroundColor=none;strokeColor=#909090;fontColor=#1A1A1A;" vertex="1" parent="mup1xXLrEogH3Mq1CVz5-8">
          <mxGeometry x="30" width="150" height="30" as="geometry">
            <mxRectangle width="150" height="30" as="alternateBounds" />
          </mxGeometry>
        </mxCell>
        <mxCell id="mup1xXLrEogH3Mq1CVz5-11" value="" style="shape=tableRow;horizontal=0;startSize=0;swimlaneHead=0;swimlaneBody=0;fillColor=none;collapsible=0;dropTarget=0;points=[[0,0.5],[1,0.5]];portConstraint=eastwest;top=0;left=0;right=0;bottom=0;labelBackgroundColor=none;strokeColor=#909090;fontColor=#1A1A1A;" vertex="1" parent="mup1xXLrEogH3Mq1CVz5-1">
          <mxGeometry y="150" width="180" height="30" as="geometry" />
        </mxCell>
        <mxCell id="mup1xXLrEogH3Mq1CVz5-12" value="" style="shape=partialRectangle;connectable=0;fillColor=none;top=0;left=0;bottom=0;right=0;editable=1;overflow=hidden;whiteSpace=wrap;html=1;labelBackgroundColor=none;strokeColor=#909090;fontColor=#1A1A1A;" vertex="1" parent="mup1xXLrEogH3Mq1CVz5-11">
          <mxGeometry width="30" height="30" as="geometry">
            <mxRectangle width="30" height="30" as="alternateBounds" />
          </mxGeometry>
        </mxCell>
        <mxCell id="mup1xXLrEogH3Mq1CVz5-13" value="Gender" style="shape=partialRectangle;connectable=0;fillColor=none;top=0;left=0;bottom=0;right=0;align=left;spacingLeft=6;overflow=hidden;whiteSpace=wrap;html=1;labelBackgroundColor=none;strokeColor=#909090;fontColor=#1A1A1A;" vertex="1" parent="mup1xXLrEogH3Mq1CVz5-11">
          <mxGeometry x="30" width="150" height="30" as="geometry">
            <mxRectangle width="150" height="30" as="alternateBounds" />
          </mxGeometry>
        </mxCell>
        <mxCell id="mup1xXLrEogH3Mq1CVz5-57" value="" style="shape=tableRow;horizontal=0;startSize=0;swimlaneHead=0;swimlaneBody=0;fillColor=none;collapsible=0;dropTarget=0;points=[[0,0.5],[1,0.5]];portConstraint=eastwest;top=0;left=0;right=0;bottom=0;labelBackgroundColor=none;strokeColor=#909090;fontColor=#1A1A1A;" vertex="1" parent="mup1xXLrEogH3Mq1CVz5-1">
          <mxGeometry y="180" width="180" height="30" as="geometry" />
        </mxCell>
        <mxCell id="mup1xXLrEogH3Mq1CVz5-58" value="" style="shape=partialRectangle;connectable=0;fillColor=none;top=0;left=0;bottom=0;right=0;editable=1;overflow=hidden;whiteSpace=wrap;html=1;labelBackgroundColor=none;strokeColor=#909090;fontColor=#1A1A1A;" vertex="1" parent="mup1xXLrEogH3Mq1CVz5-57">
          <mxGeometry width="30" height="30" as="geometry">
            <mxRectangle width="30" height="30" as="alternateBounds" />
          </mxGeometry>
        </mxCell>
        <mxCell id="mup1xXLrEogH3Mq1CVz5-59" value="&lt;p style=&quot;caret-color: rgb(0, 0, 0);&quot; data-pm-slice=&quot;1 1 [&amp;quot;ordered_list&amp;quot;,{&amp;quot;spread&amp;quot;:true,&amp;quot;startingNumber&amp;quot;:1,&amp;quot;start&amp;quot;:238,&amp;quot;end&amp;quot;:1972},&amp;quot;regular_list_item&amp;quot;,{&amp;quot;start&amp;quot;:238,&amp;quot;end&amp;quot;:438},&amp;quot;list&amp;quot;,{&amp;quot;spread&amp;quot;:false,&amp;quot;start&amp;quot;:258,&amp;quot;end&amp;quot;:438},&amp;quot;regular_list_item&amp;quot;,{&amp;quot;start&amp;quot;:404,&amp;quot;end&amp;quot;:425}]&quot;&gt;Phone No&lt;/p&gt;" style="shape=partialRectangle;connectable=0;fillColor=none;top=0;left=0;bottom=0;right=0;align=left;spacingLeft=6;overflow=hidden;whiteSpace=wrap;html=1;labelBackgroundColor=none;strokeColor=#909090;fontColor=#1A1A1A;" vertex="1" parent="mup1xXLrEogH3Mq1CVz5-57">
          <mxGeometry x="30" width="150" height="30" as="geometry">
            <mxRectangle width="150" height="30" as="alternateBounds" />
          </mxGeometry>
        </mxCell>
        <mxCell id="mup1xXLrEogH3Mq1CVz5-60" value="" style="shape=tableRow;horizontal=0;startSize=0;swimlaneHead=0;swimlaneBody=0;fillColor=none;collapsible=0;dropTarget=0;points=[[0,0.5],[1,0.5]];portConstraint=eastwest;top=0;left=0;right=0;bottom=0;labelBackgroundColor=none;strokeColor=#909090;fontColor=#1A1A1A;" vertex="1" parent="mup1xXLrEogH3Mq1CVz5-1">
          <mxGeometry y="210" width="180" height="30" as="geometry" />
        </mxCell>
        <mxCell id="mup1xXLrEogH3Mq1CVz5-61" value="" style="shape=partialRectangle;connectable=0;fillColor=none;top=0;left=0;bottom=0;right=0;editable=1;overflow=hidden;whiteSpace=wrap;html=1;labelBackgroundColor=none;strokeColor=#909090;fontColor=#1A1A1A;" vertex="1" parent="mup1xXLrEogH3Mq1CVz5-60">
          <mxGeometry width="30" height="30" as="geometry">
            <mxRectangle width="30" height="30" as="alternateBounds" />
          </mxGeometry>
        </mxCell>
        <mxCell id="mup1xXLrEogH3Mq1CVz5-62" value="&lt;p style=&quot;caret-color: rgb(0, 0, 0);&quot; data-pm-slice=&quot;1 1 [&amp;quot;ordered_list&amp;quot;,{&amp;quot;spread&amp;quot;:true,&amp;quot;startingNumber&amp;quot;:1,&amp;quot;start&amp;quot;:238,&amp;quot;end&amp;quot;:1972},&amp;quot;regular_list_item&amp;quot;,{&amp;quot;start&amp;quot;:238,&amp;quot;end&amp;quot;:438},&amp;quot;list&amp;quot;,{&amp;quot;spread&amp;quot;:false,&amp;quot;start&amp;quot;:258,&amp;quot;end&amp;quot;:438},&amp;quot;regular_list_item&amp;quot;,{&amp;quot;start&amp;quot;:429,&amp;quot;end&amp;quot;:438}]&quot;&gt;Address&lt;/p&gt;" style="shape=partialRectangle;connectable=0;fillColor=none;top=0;left=0;bottom=0;right=0;align=left;spacingLeft=6;overflow=hidden;whiteSpace=wrap;html=1;labelBackgroundColor=none;strokeColor=#909090;fontColor=#1A1A1A;" vertex="1" parent="mup1xXLrEogH3Mq1CVz5-60">
          <mxGeometry x="30" width="150" height="30" as="geometry">
            <mxRectangle width="150" height="30" as="alternateBounds" />
          </mxGeometry>
        </mxCell>
        <mxCell id="mup1xXLrEogH3Mq1CVz5-63" value="" style="shape=tableRow;horizontal=0;startSize=0;swimlaneHead=0;swimlaneBody=0;fillColor=none;collapsible=0;dropTarget=0;points=[[0,0.5],[1,0.5]];portConstraint=eastwest;top=0;left=0;right=0;bottom=0;labelBackgroundColor=none;strokeColor=#909090;fontColor=#1A1A1A;" vertex="1" parent="mup1xXLrEogH3Mq1CVz5-1">
          <mxGeometry y="240" width="180" height="30" as="geometry" />
        </mxCell>
        <mxCell id="mup1xXLrEogH3Mq1CVz5-64" value="" style="shape=partialRectangle;connectable=0;fillColor=none;top=0;left=0;bottom=0;right=0;editable=1;overflow=hidden;whiteSpace=wrap;html=1;labelBackgroundColor=none;strokeColor=#909090;fontColor=#1A1A1A;" vertex="1" parent="mup1xXLrEogH3Mq1CVz5-63">
          <mxGeometry width="30" height="30" as="geometry">
            <mxRectangle width="30" height="30" as="alternateBounds" />
          </mxGeometry>
        </mxCell>
        <mxCell id="mup1xXLrEogH3Mq1CVz5-65" value="Date" style="shape=partialRectangle;connectable=0;fillColor=none;top=0;left=0;bottom=0;right=0;align=left;spacingLeft=6;overflow=hidden;whiteSpace=wrap;html=1;labelBackgroundColor=none;strokeColor=#909090;fontColor=#1A1A1A;" vertex="1" parent="mup1xXLrEogH3Mq1CVz5-63">
          <mxGeometry x="30" width="150" height="30" as="geometry">
            <mxRectangle width="150" height="30" as="alternateBounds" />
          </mxGeometry>
        </mxCell>
        <mxCell id="mup1xXLrEogH3Mq1CVz5-221" value="" style="shape=tableRow;horizontal=0;startSize=0;swimlaneHead=0;swimlaneBody=0;fillColor=none;collapsible=0;dropTarget=0;points=[[0,0.5],[1,0.5]];portConstraint=eastwest;top=0;left=0;right=0;bottom=0;labelBackgroundColor=none;strokeColor=#909090;fontColor=#1A1A1A;" vertex="1" parent="mup1xXLrEogH3Mq1CVz5-1">
          <mxGeometry y="270" width="180" height="30" as="geometry" />
        </mxCell>
        <mxCell id="mup1xXLrEogH3Mq1CVz5-222" value="" style="shape=partialRectangle;connectable=0;fillColor=none;top=0;left=0;bottom=0;right=0;editable=1;overflow=hidden;whiteSpace=wrap;html=1;labelBackgroundColor=none;strokeColor=#909090;fontColor=#1A1A1A;" vertex="1" parent="mup1xXLrEogH3Mq1CVz5-221">
          <mxGeometry width="30" height="30" as="geometry">
            <mxRectangle width="30" height="30" as="alternateBounds" />
          </mxGeometry>
        </mxCell>
        <mxCell id="mup1xXLrEogH3Mq1CVz5-223" value="DOB" style="shape=partialRectangle;connectable=0;fillColor=none;top=0;left=0;bottom=0;right=0;align=left;spacingLeft=6;overflow=hidden;whiteSpace=wrap;html=1;labelBackgroundColor=none;strokeColor=#909090;fontColor=#1A1A1A;" vertex="1" parent="mup1xXLrEogH3Mq1CVz5-221">
          <mxGeometry x="30" width="150" height="30" as="geometry">
            <mxRectangle width="150" height="30" as="alternateBounds" />
          </mxGeometry>
        </mxCell>
        <mxCell id="mup1xXLrEogH3Mq1CVz5-224" value="" style="shape=tableRow;horizontal=0;startSize=0;swimlaneHead=0;swimlaneBody=0;fillColor=none;collapsible=0;dropTarget=0;points=[[0,0.5],[1,0.5]];portConstraint=eastwest;top=0;left=0;right=0;bottom=0;labelBackgroundColor=none;strokeColor=#909090;fontColor=#1A1A1A;" vertex="1" parent="mup1xXLrEogH3Mq1CVz5-1">
          <mxGeometry y="300" width="180" height="30" as="geometry" />
        </mxCell>
        <mxCell id="mup1xXLrEogH3Mq1CVz5-225" value="" style="shape=partialRectangle;connectable=0;fillColor=none;top=0;left=0;bottom=0;right=0;editable=1;overflow=hidden;whiteSpace=wrap;html=1;labelBackgroundColor=none;strokeColor=#909090;fontColor=#1A1A1A;" vertex="1" parent="mup1xXLrEogH3Mq1CVz5-224">
          <mxGeometry width="30" height="30" as="geometry">
            <mxRectangle width="30" height="30" as="alternateBounds" />
          </mxGeometry>
        </mxCell>
        <mxCell id="mup1xXLrEogH3Mq1CVz5-226" value="City/State" style="shape=partialRectangle;connectable=0;fillColor=none;top=0;left=0;bottom=0;right=0;align=left;spacingLeft=6;overflow=hidden;whiteSpace=wrap;html=1;labelBackgroundColor=none;strokeColor=#909090;fontColor=#1A1A1A;" vertex="1" parent="mup1xXLrEogH3Mq1CVz5-224">
          <mxGeometry x="30" width="150" height="30" as="geometry">
            <mxRectangle width="150" height="30" as="alternateBounds" />
          </mxGeometry>
        </mxCell>
        <mxCell id="mup1xXLrEogH3Mq1CVz5-227" value="" style="shape=tableRow;horizontal=0;startSize=0;swimlaneHead=0;swimlaneBody=0;fillColor=none;collapsible=0;dropTarget=0;points=[[0,0.5],[1,0.5]];portConstraint=eastwest;top=0;left=0;right=0;bottom=0;labelBackgroundColor=none;strokeColor=#909090;fontColor=#1A1A1A;" vertex="1" parent="mup1xXLrEogH3Mq1CVz5-1">
          <mxGeometry y="330" width="180" height="30" as="geometry" />
        </mxCell>
        <mxCell id="mup1xXLrEogH3Mq1CVz5-228" value="" style="shape=partialRectangle;connectable=0;fillColor=none;top=0;left=0;bottom=0;right=0;editable=1;overflow=hidden;whiteSpace=wrap;html=1;labelBackgroundColor=none;strokeColor=#909090;fontColor=#1A1A1A;" vertex="1" parent="mup1xXLrEogH3Mq1CVz5-227">
          <mxGeometry width="30" height="30" as="geometry">
            <mxRectangle width="30" height="30" as="alternateBounds" />
          </mxGeometry>
        </mxCell>
        <mxCell id="mup1xXLrEogH3Mq1CVz5-229" value="Country" style="shape=partialRectangle;connectable=0;fillColor=none;top=0;left=0;bottom=0;right=0;align=left;spacingLeft=6;overflow=hidden;whiteSpace=wrap;html=1;labelBackgroundColor=none;strokeColor=#909090;fontColor=#1A1A1A;" vertex="1" parent="mup1xXLrEogH3Mq1CVz5-227">
          <mxGeometry x="30" width="150" height="30" as="geometry">
            <mxRectangle width="150" height="30" as="alternateBounds" />
          </mxGeometry>
        </mxCell>
        <mxCell id="mup1xXLrEogH3Mq1CVz5-230" value="" style="shape=tableRow;horizontal=0;startSize=0;swimlaneHead=0;swimlaneBody=0;fillColor=none;collapsible=0;dropTarget=0;points=[[0,0.5],[1,0.5]];portConstraint=eastwest;top=0;left=0;right=0;bottom=0;labelBackgroundColor=none;strokeColor=#909090;fontColor=#1A1A1A;" vertex="1" parent="mup1xXLrEogH3Mq1CVz5-1">
          <mxGeometry y="360" width="180" height="30" as="geometry" />
        </mxCell>
        <mxCell id="mup1xXLrEogH3Mq1CVz5-231" value="" style="shape=partialRectangle;connectable=0;fillColor=none;top=0;left=0;bottom=0;right=0;editable=1;overflow=hidden;whiteSpace=wrap;html=1;labelBackgroundColor=none;strokeColor=#909090;fontColor=#1A1A1A;" vertex="1" parent="mup1xXLrEogH3Mq1CVz5-230">
          <mxGeometry width="30" height="30" as="geometry">
            <mxRectangle width="30" height="30" as="alternateBounds" />
          </mxGeometry>
        </mxCell>
        <mxCell id="mup1xXLrEogH3Mq1CVz5-232" value="PinCode" style="shape=partialRectangle;connectable=0;fillColor=none;top=0;left=0;bottom=0;right=0;align=left;spacingLeft=6;overflow=hidden;whiteSpace=wrap;html=1;labelBackgroundColor=none;strokeColor=#909090;fontColor=#1A1A1A;" vertex="1" parent="mup1xXLrEogH3Mq1CVz5-230">
          <mxGeometry x="30" width="150" height="30" as="geometry">
            <mxRectangle width="150" height="30" as="alternateBounds" />
          </mxGeometry>
        </mxCell>
        <mxCell id="mup1xXLrEogH3Mq1CVz5-93" value="&lt;p style=&quot;caret-color: rgb(0, 0, 0); font-weight: 400; text-align: start; text-wrap-mode: wrap;&quot; data-pm-slice=&quot;1 1 [&amp;quot;ordered_list&amp;quot;,{&amp;quot;spread&amp;quot;:true,&amp;quot;startingNumber&amp;quot;:1,&amp;quot;start&amp;quot;:238,&amp;quot;end&amp;quot;:1972},&amp;quot;regular_list_item&amp;quot;,{&amp;quot;start&amp;quot;:1001,&amp;quot;end&amp;quot;:1219}]&quot;&gt;&lt;strong&gt;Billing&lt;/strong&gt;&lt;/p&gt;" style="shape=table;startSize=30;container=1;collapsible=1;childLayout=tableLayout;fixedRows=1;rowLines=0;fontStyle=1;align=center;resizeLast=1;html=1;labelBackgroundColor=none;fillColor=#F5AB50;strokeColor=#909090;fontColor=#1A1A1A;" vertex="1" parent="1">
          <mxGeometry x="-480" y="285" width="180" height="270" as="geometry" />
        </mxCell>
        <mxCell id="mup1xXLrEogH3Mq1CVz5-94" value="" style="shape=tableRow;horizontal=0;startSize=0;swimlaneHead=0;swimlaneBody=0;fillColor=none;collapsible=0;dropTarget=0;points=[[0,0.5],[1,0.5]];portConstraint=eastwest;top=0;left=0;right=0;bottom=1;labelBackgroundColor=none;strokeColor=#909090;fontColor=#1A1A1A;" vertex="1" parent="mup1xXLrEogH3Mq1CVz5-93">
          <mxGeometry y="30" width="180" height="30" as="geometry" />
        </mxCell>
        <mxCell id="mup1xXLrEogH3Mq1CVz5-95" value="PK" style="shape=partialRectangle;connectable=0;fillColor=none;top=0;left=0;bottom=0;right=0;fontStyle=1;overflow=hidden;whiteSpace=wrap;html=1;labelBackgroundColor=none;strokeColor=#909090;fontColor=#1A1A1A;" vertex="1" parent="mup1xXLrEogH3Mq1CVz5-94">
          <mxGeometry width="30" height="30" as="geometry">
            <mxRectangle width="30" height="30" as="alternateBounds" />
          </mxGeometry>
        </mxCell>
        <mxCell id="mup1xXLrEogH3Mq1CVz5-96" value="&lt;p style=&quot;caret-color: rgb(0, 0, 0); font-weight: 400; text-decoration-line: none;&quot; data-pm-slice=&quot;1 1 [&amp;quot;ordered_list&amp;quot;,{&amp;quot;spread&amp;quot;:true,&amp;quot;startingNumber&amp;quot;:1,&amp;quot;start&amp;quot;:238,&amp;quot;end&amp;quot;:1972},&amp;quot;regular_list_item&amp;quot;,{&amp;quot;start&amp;quot;:1001,&amp;quot;end&amp;quot;:1219},&amp;quot;list&amp;quot;,{&amp;quot;spread&amp;quot;:false,&amp;quot;start&amp;quot;:1020,&amp;quot;end&amp;quot;:1219},&amp;quot;regular_list_item&amp;quot;,{&amp;quot;start&amp;quot;:1020,&amp;quot;end&amp;quot;:1046}]&quot;&gt;Billing ID&lt;/p&gt;" style="shape=partialRectangle;connectable=0;fillColor=none;top=0;left=0;bottom=0;right=0;align=left;spacingLeft=6;fontStyle=5;overflow=hidden;whiteSpace=wrap;html=1;labelBackgroundColor=none;strokeColor=#909090;fontColor=#1A1A1A;" vertex="1" parent="mup1xXLrEogH3Mq1CVz5-94">
          <mxGeometry x="30" width="150" height="30" as="geometry">
            <mxRectangle width="150" height="30" as="alternateBounds" />
          </mxGeometry>
        </mxCell>
        <mxCell id="mup1xXLrEogH3Mq1CVz5-97" value="" style="shape=tableRow;horizontal=0;startSize=0;swimlaneHead=0;swimlaneBody=0;fillColor=none;collapsible=0;dropTarget=0;points=[[0,0.5],[1,0.5]];portConstraint=eastwest;top=0;left=0;right=0;bottom=0;labelBackgroundColor=none;strokeColor=#909090;fontColor=#1A1A1A;" vertex="1" parent="mup1xXLrEogH3Mq1CVz5-93">
          <mxGeometry y="60" width="180" height="30" as="geometry" />
        </mxCell>
        <mxCell id="mup1xXLrEogH3Mq1CVz5-98" value="" style="shape=partialRectangle;connectable=0;fillColor=none;top=0;left=0;bottom=0;right=0;editable=1;overflow=hidden;whiteSpace=wrap;html=1;labelBackgroundColor=none;strokeColor=#909090;fontColor=#1A1A1A;" vertex="1" parent="mup1xXLrEogH3Mq1CVz5-97">
          <mxGeometry width="30" height="30" as="geometry">
            <mxRectangle width="30" height="30" as="alternateBounds" />
          </mxGeometry>
        </mxCell>
        <mxCell id="mup1xXLrEogH3Mq1CVz5-99" value="patient ID&amp;nbsp;" style="shape=partialRectangle;connectable=0;fillColor=none;top=0;left=0;bottom=0;right=0;align=left;spacingLeft=6;overflow=hidden;whiteSpace=wrap;html=1;labelBackgroundColor=none;strokeColor=#909090;fontColor=#1A1A1A;" vertex="1" parent="mup1xXLrEogH3Mq1CVz5-97">
          <mxGeometry x="30" width="150" height="30" as="geometry">
            <mxRectangle width="150" height="30" as="alternateBounds" />
          </mxGeometry>
        </mxCell>
        <mxCell id="mup1xXLrEogH3Mq1CVz5-100" value="" style="shape=tableRow;horizontal=0;startSize=0;swimlaneHead=0;swimlaneBody=0;fillColor=none;collapsible=0;dropTarget=0;points=[[0,0.5],[1,0.5]];portConstraint=eastwest;top=0;left=0;right=0;bottom=0;labelBackgroundColor=none;strokeColor=#909090;fontColor=#1A1A1A;" vertex="1" parent="mup1xXLrEogH3Mq1CVz5-93">
          <mxGeometry y="90" width="180" height="30" as="geometry" />
        </mxCell>
        <mxCell id="mup1xXLrEogH3Mq1CVz5-101" value="" style="shape=partialRectangle;connectable=0;fillColor=none;top=0;left=0;bottom=0;right=0;editable=1;overflow=hidden;whiteSpace=wrap;html=1;labelBackgroundColor=none;strokeColor=#909090;fontColor=#1A1A1A;" vertex="1" parent="mup1xXLrEogH3Mq1CVz5-100">
          <mxGeometry width="30" height="30" as="geometry">
            <mxRectangle width="30" height="30" as="alternateBounds" />
          </mxGeometry>
        </mxCell>
        <mxCell id="mup1xXLrEogH3Mq1CVz5-102" value="Room Charges" style="shape=partialRectangle;connectable=0;fillColor=none;top=0;left=0;bottom=0;right=0;align=left;spacingLeft=6;overflow=hidden;whiteSpace=wrap;html=1;labelBackgroundColor=none;strokeColor=#909090;fontColor=#1A1A1A;" vertex="1" parent="mup1xXLrEogH3Mq1CVz5-100">
          <mxGeometry x="30" width="150" height="30" as="geometry">
            <mxRectangle width="150" height="30" as="alternateBounds" />
          </mxGeometry>
        </mxCell>
        <mxCell id="mup1xXLrEogH3Mq1CVz5-103" value="" style="shape=tableRow;horizontal=0;startSize=0;swimlaneHead=0;swimlaneBody=0;fillColor=none;collapsible=0;dropTarget=0;points=[[0,0.5],[1,0.5]];portConstraint=eastwest;top=0;left=0;right=0;bottom=0;labelBackgroundColor=none;strokeColor=#909090;fontColor=#1A1A1A;" vertex="1" parent="mup1xXLrEogH3Mq1CVz5-93">
          <mxGeometry y="120" width="180" height="30" as="geometry" />
        </mxCell>
        <mxCell id="mup1xXLrEogH3Mq1CVz5-104" value="" style="shape=partialRectangle;connectable=0;fillColor=none;top=0;left=0;bottom=0;right=0;editable=1;overflow=hidden;whiteSpace=wrap;html=1;labelBackgroundColor=none;strokeColor=#909090;fontColor=#1A1A1A;" vertex="1" parent="mup1xXLrEogH3Mq1CVz5-103">
          <mxGeometry width="30" height="30" as="geometry">
            <mxRectangle width="30" height="30" as="alternateBounds" />
          </mxGeometry>
        </mxCell>
        <mxCell id="mup1xXLrEogH3Mq1CVz5-105" value="surgery Charges (If Any)" style="shape=partialRectangle;connectable=0;fillColor=none;top=0;left=0;bottom=0;right=0;align=left;spacingLeft=6;overflow=hidden;whiteSpace=wrap;html=1;labelBackgroundColor=none;strokeColor=#909090;fontColor=#1A1A1A;" vertex="1" parent="mup1xXLrEogH3Mq1CVz5-103">
          <mxGeometry x="30" width="150" height="30" as="geometry">
            <mxRectangle width="150" height="30" as="alternateBounds" />
          </mxGeometry>
        </mxCell>
        <mxCell id="mup1xXLrEogH3Mq1CVz5-132" value="" style="shape=tableRow;horizontal=0;startSize=0;swimlaneHead=0;swimlaneBody=0;fillColor=none;collapsible=0;dropTarget=0;points=[[0,0.5],[1,0.5]];portConstraint=eastwest;top=0;left=0;right=0;bottom=0;labelBackgroundColor=none;strokeColor=#909090;fontColor=#1A1A1A;" vertex="1" parent="mup1xXLrEogH3Mq1CVz5-93">
          <mxGeometry y="150" width="180" height="30" as="geometry" />
        </mxCell>
        <mxCell id="mup1xXLrEogH3Mq1CVz5-133" value="" style="shape=partialRectangle;connectable=0;fillColor=none;top=0;left=0;bottom=0;right=0;editable=1;overflow=hidden;whiteSpace=wrap;html=1;labelBackgroundColor=none;strokeColor=#909090;fontColor=#1A1A1A;" vertex="1" parent="mup1xXLrEogH3Mq1CVz5-132">
          <mxGeometry width="30" height="30" as="geometry">
            <mxRectangle width="30" height="30" as="alternateBounds" />
          </mxGeometry>
        </mxCell>
        <mxCell id="mup1xXLrEogH3Mq1CVz5-134" value="&lt;span style=&quot;caret-color: rgb(0, 0, 0); background-color: transparent; color: light-dark(rgb(0, 0, 0), rgb(255, 255, 255));&quot;&gt;Consultation&lt;/span&gt;&amp;nbsp;FEE" style="shape=partialRectangle;connectable=0;fillColor=none;top=0;left=0;bottom=0;right=0;align=left;spacingLeft=6;overflow=hidden;whiteSpace=wrap;html=1;labelBackgroundColor=none;strokeColor=#909090;fontColor=#1A1A1A;" vertex="1" parent="mup1xXLrEogH3Mq1CVz5-132">
          <mxGeometry x="30" width="150" height="30" as="geometry">
            <mxRectangle width="150" height="30" as="alternateBounds" />
          </mxGeometry>
        </mxCell>
        <mxCell id="mup1xXLrEogH3Mq1CVz5-135" value="" style="shape=tableRow;horizontal=0;startSize=0;swimlaneHead=0;swimlaneBody=0;fillColor=none;collapsible=0;dropTarget=0;points=[[0,0.5],[1,0.5]];portConstraint=eastwest;top=0;left=0;right=0;bottom=0;labelBackgroundColor=none;strokeColor=#909090;fontColor=#1A1A1A;" vertex="1" parent="mup1xXLrEogH3Mq1CVz5-93">
          <mxGeometry y="180" width="180" height="30" as="geometry" />
        </mxCell>
        <mxCell id="mup1xXLrEogH3Mq1CVz5-136" value="" style="shape=partialRectangle;connectable=0;fillColor=none;top=0;left=0;bottom=0;right=0;editable=1;overflow=hidden;whiteSpace=wrap;html=1;labelBackgroundColor=none;strokeColor=#909090;fontColor=#1A1A1A;" vertex="1" parent="mup1xXLrEogH3Mq1CVz5-135">
          <mxGeometry width="30" height="30" as="geometry">
            <mxRectangle width="30" height="30" as="alternateBounds" />
          </mxGeometry>
        </mxCell>
        <mxCell id="mup1xXLrEogH3Mq1CVz5-137" value="Medication Cost" style="shape=partialRectangle;connectable=0;fillColor=none;top=0;left=0;bottom=0;right=0;align=left;spacingLeft=6;overflow=hidden;whiteSpace=wrap;html=1;labelBackgroundColor=none;strokeColor=#909090;fontColor=#1A1A1A;" vertex="1" parent="mup1xXLrEogH3Mq1CVz5-135">
          <mxGeometry x="30" width="150" height="30" as="geometry">
            <mxRectangle width="150" height="30" as="alternateBounds" />
          </mxGeometry>
        </mxCell>
        <mxCell id="mup1xXLrEogH3Mq1CVz5-138" value="" style="shape=tableRow;horizontal=0;startSize=0;swimlaneHead=0;swimlaneBody=0;fillColor=none;collapsible=0;dropTarget=0;points=[[0,0.5],[1,0.5]];portConstraint=eastwest;top=0;left=0;right=0;bottom=0;labelBackgroundColor=none;strokeColor=#909090;fontColor=#1A1A1A;" vertex="1" parent="mup1xXLrEogH3Mq1CVz5-93">
          <mxGeometry y="210" width="180" height="30" as="geometry" />
        </mxCell>
        <mxCell id="mup1xXLrEogH3Mq1CVz5-139" value="" style="shape=partialRectangle;connectable=0;fillColor=none;top=0;left=0;bottom=0;right=0;editable=1;overflow=hidden;whiteSpace=wrap;html=1;labelBackgroundColor=none;strokeColor=#909090;fontColor=#1A1A1A;" vertex="1" parent="mup1xXLrEogH3Mq1CVz5-138">
          <mxGeometry width="30" height="30" as="geometry">
            <mxRectangle width="30" height="30" as="alternateBounds" />
          </mxGeometry>
        </mxCell>
        <mxCell id="mup1xXLrEogH3Mq1CVz5-140" value="Total Amount" style="shape=partialRectangle;connectable=0;fillColor=none;top=0;left=0;bottom=0;right=0;align=left;spacingLeft=6;overflow=hidden;whiteSpace=wrap;html=1;labelBackgroundColor=none;strokeColor=#909090;fontColor=#1A1A1A;" vertex="1" parent="mup1xXLrEogH3Mq1CVz5-138">
          <mxGeometry x="30" width="150" height="30" as="geometry">
            <mxRectangle width="150" height="30" as="alternateBounds" />
          </mxGeometry>
        </mxCell>
        <mxCell id="mup1xXLrEogH3Mq1CVz5-163" value="" style="shape=tableRow;horizontal=0;startSize=0;swimlaneHead=0;swimlaneBody=0;fillColor=none;collapsible=0;dropTarget=0;points=[[0,0.5],[1,0.5]];portConstraint=eastwest;top=0;left=0;right=0;bottom=0;labelBackgroundColor=none;strokeColor=#909090;fontColor=#1A1A1A;" vertex="1" parent="mup1xXLrEogH3Mq1CVz5-93">
          <mxGeometry y="240" width="180" height="30" as="geometry" />
        </mxCell>
        <mxCell id="mup1xXLrEogH3Mq1CVz5-164" value="" style="shape=partialRectangle;connectable=0;fillColor=none;top=0;left=0;bottom=0;right=0;editable=1;overflow=hidden;whiteSpace=wrap;html=1;labelBackgroundColor=none;strokeColor=#909090;fontColor=#1A1A1A;" vertex="1" parent="mup1xXLrEogH3Mq1CVz5-163">
          <mxGeometry width="30" height="30" as="geometry">
            <mxRectangle width="30" height="30" as="alternateBounds" />
          </mxGeometry>
        </mxCell>
        <mxCell id="mup1xXLrEogH3Mq1CVz5-165" value="Payment Status (Paid/Unpaid)" style="shape=partialRectangle;connectable=0;fillColor=none;top=0;left=0;bottom=0;right=0;align=left;spacingLeft=6;overflow=hidden;whiteSpace=wrap;html=1;labelBackgroundColor=none;strokeColor=#909090;fontColor=#1A1A1A;" vertex="1" parent="mup1xXLrEogH3Mq1CVz5-163">
          <mxGeometry x="30" width="150" height="30" as="geometry">
            <mxRectangle width="150" height="30" as="alternateBounds" />
          </mxGeometry>
        </mxCell>
        <mxCell id="mup1xXLrEogH3Mq1CVz5-106" value="Surgies" style="shape=table;startSize=30;container=1;collapsible=1;childLayout=tableLayout;fixedRows=1;rowLines=0;fontStyle=1;align=center;resizeLast=1;html=1;labelBackgroundColor=none;fillColor=#F5AB50;strokeColor=#909090;fontColor=#1A1A1A;" vertex="1" parent="1">
          <mxGeometry x="540" y="300" width="180" height="240" as="geometry" />
        </mxCell>
        <mxCell id="mup1xXLrEogH3Mq1CVz5-107" value="" style="shape=tableRow;horizontal=0;startSize=0;swimlaneHead=0;swimlaneBody=0;fillColor=none;collapsible=0;dropTarget=0;points=[[0,0.5],[1,0.5]];portConstraint=eastwest;top=0;left=0;right=0;bottom=1;labelBackgroundColor=none;strokeColor=#909090;fontColor=#1A1A1A;" vertex="1" parent="mup1xXLrEogH3Mq1CVz5-106">
          <mxGeometry y="30" width="180" height="30" as="geometry" />
        </mxCell>
        <mxCell id="mup1xXLrEogH3Mq1CVz5-108" value="PK" style="shape=partialRectangle;connectable=0;fillColor=none;top=0;left=0;bottom=0;right=0;fontStyle=1;overflow=hidden;whiteSpace=wrap;html=1;labelBackgroundColor=none;strokeColor=#909090;fontColor=#1A1A1A;" vertex="1" parent="mup1xXLrEogH3Mq1CVz5-107">
          <mxGeometry width="30" height="30" as="geometry">
            <mxRectangle width="30" height="30" as="alternateBounds" />
          </mxGeometry>
        </mxCell>
        <mxCell id="mup1xXLrEogH3Mq1CVz5-109" value="Surgery ID" style="shape=partialRectangle;connectable=0;fillColor=none;top=0;left=0;bottom=0;right=0;align=left;spacingLeft=6;fontStyle=5;overflow=hidden;whiteSpace=wrap;html=1;labelBackgroundColor=none;strokeColor=#909090;fontColor=#1A1A1A;" vertex="1" parent="mup1xXLrEogH3Mq1CVz5-107">
          <mxGeometry x="30" width="150" height="30" as="geometry">
            <mxRectangle width="150" height="30" as="alternateBounds" />
          </mxGeometry>
        </mxCell>
        <mxCell id="mup1xXLrEogH3Mq1CVz5-110" value="" style="shape=tableRow;horizontal=0;startSize=0;swimlaneHead=0;swimlaneBody=0;fillColor=none;collapsible=0;dropTarget=0;points=[[0,0.5],[1,0.5]];portConstraint=eastwest;top=0;left=0;right=0;bottom=0;labelBackgroundColor=none;strokeColor=#909090;fontColor=#1A1A1A;" vertex="1" parent="mup1xXLrEogH3Mq1CVz5-106">
          <mxGeometry y="60" width="180" height="30" as="geometry" />
        </mxCell>
        <mxCell id="mup1xXLrEogH3Mq1CVz5-111" value="FK" style="shape=partialRectangle;connectable=0;fillColor=none;top=0;left=0;bottom=0;right=0;editable=1;overflow=hidden;whiteSpace=wrap;html=1;labelBackgroundColor=none;strokeColor=#909090;fontColor=#1A1A1A;" vertex="1" parent="mup1xXLrEogH3Mq1CVz5-110">
          <mxGeometry width="30" height="30" as="geometry">
            <mxRectangle width="30" height="30" as="alternateBounds" />
          </mxGeometry>
        </mxCell>
        <mxCell id="mup1xXLrEogH3Mq1CVz5-112" value="Patient ID" style="shape=partialRectangle;connectable=0;fillColor=none;top=0;left=0;bottom=0;right=0;align=left;spacingLeft=6;overflow=hidden;whiteSpace=wrap;html=1;labelBackgroundColor=none;strokeColor=#909090;fontColor=#1A1A1A;" vertex="1" parent="mup1xXLrEogH3Mq1CVz5-110">
          <mxGeometry x="30" width="150" height="30" as="geometry">
            <mxRectangle width="150" height="30" as="alternateBounds" />
          </mxGeometry>
        </mxCell>
        <mxCell id="mup1xXLrEogH3Mq1CVz5-113" value="" style="shape=tableRow;horizontal=0;startSize=0;swimlaneHead=0;swimlaneBody=0;fillColor=none;collapsible=0;dropTarget=0;points=[[0,0.5],[1,0.5]];portConstraint=eastwest;top=0;left=0;right=0;bottom=0;labelBackgroundColor=none;strokeColor=#909090;fontColor=#1A1A1A;" vertex="1" parent="mup1xXLrEogH3Mq1CVz5-106">
          <mxGeometry y="90" width="180" height="30" as="geometry" />
        </mxCell>
        <mxCell id="mup1xXLrEogH3Mq1CVz5-114" value="FK" style="shape=partialRectangle;connectable=0;fillColor=none;top=0;left=0;bottom=0;right=0;editable=1;overflow=hidden;whiteSpace=wrap;html=1;labelBackgroundColor=none;strokeColor=#909090;fontColor=#1A1A1A;" vertex="1" parent="mup1xXLrEogH3Mq1CVz5-113">
          <mxGeometry width="30" height="30" as="geometry">
            <mxRectangle width="30" height="30" as="alternateBounds" />
          </mxGeometry>
        </mxCell>
        <mxCell id="mup1xXLrEogH3Mq1CVz5-115" value="Doctor ID" style="shape=partialRectangle;connectable=0;fillColor=none;top=0;left=0;bottom=0;right=0;align=left;spacingLeft=6;overflow=hidden;whiteSpace=wrap;html=1;labelBackgroundColor=none;strokeColor=#909090;fontColor=#1A1A1A;" vertex="1" parent="mup1xXLrEogH3Mq1CVz5-113">
          <mxGeometry x="30" width="150" height="30" as="geometry">
            <mxRectangle width="150" height="30" as="alternateBounds" />
          </mxGeometry>
        </mxCell>
        <mxCell id="mup1xXLrEogH3Mq1CVz5-116" value="" style="shape=tableRow;horizontal=0;startSize=0;swimlaneHead=0;swimlaneBody=0;fillColor=none;collapsible=0;dropTarget=0;points=[[0,0.5],[1,0.5]];portConstraint=eastwest;top=0;left=0;right=0;bottom=0;labelBackgroundColor=none;strokeColor=#909090;fontColor=#1A1A1A;" vertex="1" parent="mup1xXLrEogH3Mq1CVz5-106">
          <mxGeometry y="120" width="180" height="30" as="geometry" />
        </mxCell>
        <mxCell id="mup1xXLrEogH3Mq1CVz5-117" value="" style="shape=partialRectangle;connectable=0;fillColor=none;top=0;left=0;bottom=0;right=0;editable=1;overflow=hidden;whiteSpace=wrap;html=1;labelBackgroundColor=none;strokeColor=#909090;fontColor=#1A1A1A;" vertex="1" parent="mup1xXLrEogH3Mq1CVz5-116">
          <mxGeometry width="30" height="30" as="geometry">
            <mxRectangle width="30" height="30" as="alternateBounds" />
          </mxGeometry>
        </mxCell>
        <mxCell id="mup1xXLrEogH3Mq1CVz5-118" value="Type of Surgery" style="shape=partialRectangle;connectable=0;fillColor=none;top=0;left=0;bottom=0;right=0;align=left;spacingLeft=6;overflow=hidden;whiteSpace=wrap;html=1;labelBackgroundColor=none;strokeColor=#909090;fontColor=#1A1A1A;" vertex="1" parent="mup1xXLrEogH3Mq1CVz5-116">
          <mxGeometry x="30" width="150" height="30" as="geometry">
            <mxRectangle width="150" height="30" as="alternateBounds" />
          </mxGeometry>
        </mxCell>
        <mxCell id="mup1xXLrEogH3Mq1CVz5-178" value="" style="shape=tableRow;horizontal=0;startSize=0;swimlaneHead=0;swimlaneBody=0;fillColor=none;collapsible=0;dropTarget=0;points=[[0,0.5],[1,0.5]];portConstraint=eastwest;top=0;left=0;right=0;bottom=0;labelBackgroundColor=none;strokeColor=#909090;fontColor=#1A1A1A;" vertex="1" parent="mup1xXLrEogH3Mq1CVz5-106">
          <mxGeometry y="150" width="180" height="30" as="geometry" />
        </mxCell>
        <mxCell id="mup1xXLrEogH3Mq1CVz5-179" value="" style="shape=partialRectangle;connectable=0;fillColor=none;top=0;left=0;bottom=0;right=0;editable=1;overflow=hidden;whiteSpace=wrap;html=1;labelBackgroundColor=none;strokeColor=#909090;fontColor=#1A1A1A;" vertex="1" parent="mup1xXLrEogH3Mq1CVz5-178">
          <mxGeometry width="30" height="30" as="geometry">
            <mxRectangle width="30" height="30" as="alternateBounds" />
          </mxGeometry>
        </mxCell>
        <mxCell id="mup1xXLrEogH3Mq1CVz5-180" value="Date/Time" style="shape=partialRectangle;connectable=0;fillColor=none;top=0;left=0;bottom=0;right=0;align=left;spacingLeft=6;overflow=hidden;whiteSpace=wrap;html=1;labelBackgroundColor=none;strokeColor=#909090;fontColor=#1A1A1A;" vertex="1" parent="mup1xXLrEogH3Mq1CVz5-178">
          <mxGeometry x="30" width="150" height="30" as="geometry">
            <mxRectangle width="150" height="30" as="alternateBounds" />
          </mxGeometry>
        </mxCell>
        <mxCell id="mup1xXLrEogH3Mq1CVz5-181" value="" style="shape=tableRow;horizontal=0;startSize=0;swimlaneHead=0;swimlaneBody=0;fillColor=none;collapsible=0;dropTarget=0;points=[[0,0.5],[1,0.5]];portConstraint=eastwest;top=0;left=0;right=0;bottom=0;labelBackgroundColor=none;strokeColor=#909090;fontColor=#1A1A1A;" vertex="1" parent="mup1xXLrEogH3Mq1CVz5-106">
          <mxGeometry y="180" width="180" height="30" as="geometry" />
        </mxCell>
        <mxCell id="mup1xXLrEogH3Mq1CVz5-182" value="" style="shape=partialRectangle;connectable=0;fillColor=none;top=0;left=0;bottom=0;right=0;editable=1;overflow=hidden;whiteSpace=wrap;html=1;labelBackgroundColor=none;strokeColor=#909090;fontColor=#1A1A1A;" vertex="1" parent="mup1xXLrEogH3Mq1CVz5-181">
          <mxGeometry width="30" height="30" as="geometry">
            <mxRectangle width="30" height="30" as="alternateBounds" />
          </mxGeometry>
        </mxCell>
        <mxCell id="mup1xXLrEogH3Mq1CVz5-183" value="Cost" style="shape=partialRectangle;connectable=0;fillColor=none;top=0;left=0;bottom=0;right=0;align=left;spacingLeft=6;overflow=hidden;whiteSpace=wrap;html=1;labelBackgroundColor=none;strokeColor=#909090;fontColor=#1A1A1A;" vertex="1" parent="mup1xXLrEogH3Mq1CVz5-181">
          <mxGeometry x="30" width="150" height="30" as="geometry">
            <mxRectangle width="150" height="30" as="alternateBounds" />
          </mxGeometry>
        </mxCell>
        <mxCell id="mup1xXLrEogH3Mq1CVz5-184" value="" style="shape=tableRow;horizontal=0;startSize=0;swimlaneHead=0;swimlaneBody=0;fillColor=none;collapsible=0;dropTarget=0;points=[[0,0.5],[1,0.5]];portConstraint=eastwest;top=0;left=0;right=0;bottom=0;labelBackgroundColor=none;strokeColor=#909090;fontColor=#1A1A1A;" vertex="1" parent="mup1xXLrEogH3Mq1CVz5-106">
          <mxGeometry y="210" width="180" height="30" as="geometry" />
        </mxCell>
        <mxCell id="mup1xXLrEogH3Mq1CVz5-185" value="" style="shape=partialRectangle;connectable=0;fillColor=none;top=0;left=0;bottom=0;right=0;editable=1;overflow=hidden;whiteSpace=wrap;html=1;labelBackgroundColor=none;strokeColor=#909090;fontColor=#1A1A1A;" vertex="1" parent="mup1xXLrEogH3Mq1CVz5-184">
          <mxGeometry width="30" height="30" as="geometry">
            <mxRectangle width="30" height="30" as="alternateBounds" />
          </mxGeometry>
        </mxCell>
        <mxCell id="mup1xXLrEogH3Mq1CVz5-186" value="Patient Condition after Surgery" style="shape=partialRectangle;connectable=0;fillColor=none;top=0;left=0;bottom=0;right=0;align=left;spacingLeft=6;overflow=hidden;whiteSpace=wrap;html=1;labelBackgroundColor=none;strokeColor=#909090;fontColor=#1A1A1A;" vertex="1" parent="mup1xXLrEogH3Mq1CVz5-184">
          <mxGeometry x="30" width="150" height="30" as="geometry">
            <mxRectangle width="150" height="30" as="alternateBounds" />
          </mxGeometry>
        </mxCell>
        <mxCell id="mup1xXLrEogH3Mq1CVz5-119" value="&lt;p style=&quot;caret-color: rgb(0, 0, 0); font-weight: 400; text-align: start; text-wrap-mode: wrap;&quot; data-pm-slice=&quot;1 1 [&amp;quot;ordered_list&amp;quot;,{&amp;quot;spread&amp;quot;:true,&amp;quot;startingNumber&amp;quot;:1,&amp;quot;start&amp;quot;:238,&amp;quot;end&amp;quot;:1972},&amp;quot;regular_list_item&amp;quot;,{&amp;quot;start&amp;quot;:1221,&amp;quot;end&amp;quot;:1390}]&quot;&gt;&lt;strong&gt;Staff&lt;/strong&gt;&lt;/p&gt;" style="shape=table;startSize=30;container=1;collapsible=1;childLayout=tableLayout;fixedRows=1;rowLines=0;fontStyle=1;align=center;resizeLast=1;html=1;labelBackgroundColor=none;fillColor=#F5AB50;strokeColor=#909090;fontColor=#1A1A1A;" vertex="1" parent="1">
          <mxGeometry x="960" y="-20" width="180" height="240" as="geometry" />
        </mxCell>
        <mxCell id="mup1xXLrEogH3Mq1CVz5-120" value="" style="shape=tableRow;horizontal=0;startSize=0;swimlaneHead=0;swimlaneBody=0;fillColor=none;collapsible=0;dropTarget=0;points=[[0,0.5],[1,0.5]];portConstraint=eastwest;top=0;left=0;right=0;bottom=1;labelBackgroundColor=none;strokeColor=#909090;fontColor=#1A1A1A;" vertex="1" parent="mup1xXLrEogH3Mq1CVz5-119">
          <mxGeometry y="30" width="180" height="30" as="geometry" />
        </mxCell>
        <mxCell id="mup1xXLrEogH3Mq1CVz5-121" value="PK" style="shape=partialRectangle;connectable=0;fillColor=none;top=0;left=0;bottom=0;right=0;fontStyle=1;overflow=hidden;whiteSpace=wrap;html=1;labelBackgroundColor=none;strokeColor=#909090;fontColor=#1A1A1A;" vertex="1" parent="mup1xXLrEogH3Mq1CVz5-120">
          <mxGeometry width="30" height="30" as="geometry">
            <mxRectangle width="30" height="30" as="alternateBounds" />
          </mxGeometry>
        </mxCell>
        <mxCell id="mup1xXLrEogH3Mq1CVz5-122" value="Staff ID" style="shape=partialRectangle;connectable=0;fillColor=none;top=0;left=0;bottom=0;right=0;align=left;spacingLeft=6;fontStyle=5;overflow=hidden;whiteSpace=wrap;html=1;labelBackgroundColor=none;strokeColor=#909090;fontColor=#1A1A1A;" vertex="1" parent="mup1xXLrEogH3Mq1CVz5-120">
          <mxGeometry x="30" width="150" height="30" as="geometry">
            <mxRectangle width="150" height="30" as="alternateBounds" />
          </mxGeometry>
        </mxCell>
        <mxCell id="mup1xXLrEogH3Mq1CVz5-123" value="" style="shape=tableRow;horizontal=0;startSize=0;swimlaneHead=0;swimlaneBody=0;fillColor=none;collapsible=0;dropTarget=0;points=[[0,0.5],[1,0.5]];portConstraint=eastwest;top=0;left=0;right=0;bottom=0;labelBackgroundColor=none;strokeColor=#909090;fontColor=#1A1A1A;" vertex="1" parent="mup1xXLrEogH3Mq1CVz5-119">
          <mxGeometry y="60" width="180" height="30" as="geometry" />
        </mxCell>
        <mxCell id="mup1xXLrEogH3Mq1CVz5-124" value="" style="shape=partialRectangle;connectable=0;fillColor=none;top=0;left=0;bottom=0;right=0;editable=1;overflow=hidden;whiteSpace=wrap;html=1;labelBackgroundColor=none;strokeColor=#909090;fontColor=#1A1A1A;" vertex="1" parent="mup1xXLrEogH3Mq1CVz5-123">
          <mxGeometry width="30" height="30" as="geometry">
            <mxRectangle width="30" height="30" as="alternateBounds" />
          </mxGeometry>
        </mxCell>
        <mxCell id="mup1xXLrEogH3Mq1CVz5-125" value="name&amp;nbsp;" style="shape=partialRectangle;connectable=0;fillColor=none;top=0;left=0;bottom=0;right=0;align=left;spacingLeft=6;overflow=hidden;whiteSpace=wrap;html=1;labelBackgroundColor=none;strokeColor=#909090;fontColor=#1A1A1A;" vertex="1" parent="mup1xXLrEogH3Mq1CVz5-123">
          <mxGeometry x="30" width="150" height="30" as="geometry">
            <mxRectangle width="150" height="30" as="alternateBounds" />
          </mxGeometry>
        </mxCell>
        <mxCell id="mup1xXLrEogH3Mq1CVz5-126" value="" style="shape=tableRow;horizontal=0;startSize=0;swimlaneHead=0;swimlaneBody=0;fillColor=none;collapsible=0;dropTarget=0;points=[[0,0.5],[1,0.5]];portConstraint=eastwest;top=0;left=0;right=0;bottom=0;labelBackgroundColor=none;strokeColor=#909090;fontColor=#1A1A1A;" vertex="1" parent="mup1xXLrEogH3Mq1CVz5-119">
          <mxGeometry y="90" width="180" height="30" as="geometry" />
        </mxCell>
        <mxCell id="mup1xXLrEogH3Mq1CVz5-127" value="" style="shape=partialRectangle;connectable=0;fillColor=none;top=0;left=0;bottom=0;right=0;editable=1;overflow=hidden;whiteSpace=wrap;html=1;labelBackgroundColor=none;strokeColor=#909090;fontColor=#1A1A1A;" vertex="1" parent="mup1xXLrEogH3Mq1CVz5-126">
          <mxGeometry width="30" height="30" as="geometry">
            <mxRectangle width="30" height="30" as="alternateBounds" />
          </mxGeometry>
        </mxCell>
        <mxCell id="mup1xXLrEogH3Mq1CVz5-128" value="role (nurse/&amp;nbsp;&lt;span style=&quot;caret-color: rgb(0, 0, 0); background-color: transparent; color: light-dark(rgb(0, 0, 0), rgb(255, 255, 255));&quot;&gt;Technician&lt;/span&gt;&lt;span style=&quot;background-color: transparent; color: light-dark(rgb(0, 0, 0), rgb(255, 255, 255));&quot;&gt;)&lt;/span&gt;" style="shape=partialRectangle;connectable=0;fillColor=none;top=0;left=0;bottom=0;right=0;align=left;spacingLeft=6;overflow=hidden;whiteSpace=wrap;html=1;labelBackgroundColor=none;strokeColor=#909090;fontColor=#1A1A1A;" vertex="1" parent="mup1xXLrEogH3Mq1CVz5-126">
          <mxGeometry x="30" width="150" height="30" as="geometry">
            <mxRectangle width="150" height="30" as="alternateBounds" />
          </mxGeometry>
        </mxCell>
        <mxCell id="mup1xXLrEogH3Mq1CVz5-129" value="" style="shape=tableRow;horizontal=0;startSize=0;swimlaneHead=0;swimlaneBody=0;fillColor=none;collapsible=0;dropTarget=0;points=[[0,0.5],[1,0.5]];portConstraint=eastwest;top=0;left=0;right=0;bottom=0;labelBackgroundColor=none;strokeColor=#909090;fontColor=#1A1A1A;" vertex="1" parent="mup1xXLrEogH3Mq1CVz5-119">
          <mxGeometry y="120" width="180" height="30" as="geometry" />
        </mxCell>
        <mxCell id="mup1xXLrEogH3Mq1CVz5-130" value="" style="shape=partialRectangle;connectable=0;fillColor=none;top=0;left=0;bottom=0;right=0;editable=1;overflow=hidden;whiteSpace=wrap;html=1;labelBackgroundColor=none;strokeColor=#909090;fontColor=#1A1A1A;" vertex="1" parent="mup1xXLrEogH3Mq1CVz5-129">
          <mxGeometry width="30" height="30" as="geometry">
            <mxRectangle width="30" height="30" as="alternateBounds" />
          </mxGeometry>
        </mxCell>
        <mxCell id="mup1xXLrEogH3Mq1CVz5-131" value="Deperament Which ??" style="shape=partialRectangle;connectable=0;fillColor=none;top=0;left=0;bottom=0;right=0;align=left;spacingLeft=6;overflow=hidden;whiteSpace=wrap;html=1;labelBackgroundColor=none;strokeColor=#909090;fontColor=#1A1A1A;" vertex="1" parent="mup1xXLrEogH3Mq1CVz5-129">
          <mxGeometry x="30" width="150" height="30" as="geometry">
            <mxRectangle width="150" height="30" as="alternateBounds" />
          </mxGeometry>
        </mxCell>
        <mxCell id="mup1xXLrEogH3Mq1CVz5-169" value="" style="shape=tableRow;horizontal=0;startSize=0;swimlaneHead=0;swimlaneBody=0;fillColor=none;collapsible=0;dropTarget=0;points=[[0,0.5],[1,0.5]];portConstraint=eastwest;top=0;left=0;right=0;bottom=0;labelBackgroundColor=none;strokeColor=#909090;fontColor=#1A1A1A;" vertex="1" parent="mup1xXLrEogH3Mq1CVz5-119">
          <mxGeometry y="150" width="180" height="30" as="geometry" />
        </mxCell>
        <mxCell id="mup1xXLrEogH3Mq1CVz5-170" value="" style="shape=partialRectangle;connectable=0;fillColor=none;top=0;left=0;bottom=0;right=0;editable=1;overflow=hidden;whiteSpace=wrap;html=1;labelBackgroundColor=none;strokeColor=#909090;fontColor=#1A1A1A;" vertex="1" parent="mup1xXLrEogH3Mq1CVz5-169">
          <mxGeometry width="30" height="30" as="geometry">
            <mxRectangle width="30" height="30" as="alternateBounds" />
          </mxGeometry>
        </mxCell>
        <mxCell id="mup1xXLrEogH3Mq1CVz5-171" value="Phone No" style="shape=partialRectangle;connectable=0;fillColor=none;top=0;left=0;bottom=0;right=0;align=left;spacingLeft=6;overflow=hidden;whiteSpace=wrap;html=1;labelBackgroundColor=none;strokeColor=#909090;fontColor=#1A1A1A;" vertex="1" parent="mup1xXLrEogH3Mq1CVz5-169">
          <mxGeometry x="30" width="150" height="30" as="geometry">
            <mxRectangle width="150" height="30" as="alternateBounds" />
          </mxGeometry>
        </mxCell>
        <mxCell id="mup1xXLrEogH3Mq1CVz5-172" value="" style="shape=tableRow;horizontal=0;startSize=0;swimlaneHead=0;swimlaneBody=0;fillColor=none;collapsible=0;dropTarget=0;points=[[0,0.5],[1,0.5]];portConstraint=eastwest;top=0;left=0;right=0;bottom=0;labelBackgroundColor=none;strokeColor=#909090;fontColor=#1A1A1A;" vertex="1" parent="mup1xXLrEogH3Mq1CVz5-119">
          <mxGeometry y="180" width="180" height="30" as="geometry" />
        </mxCell>
        <mxCell id="mup1xXLrEogH3Mq1CVz5-173" value="" style="shape=partialRectangle;connectable=0;fillColor=none;top=0;left=0;bottom=0;right=0;editable=1;overflow=hidden;whiteSpace=wrap;html=1;labelBackgroundColor=none;strokeColor=#909090;fontColor=#1A1A1A;" vertex="1" parent="mup1xXLrEogH3Mq1CVz5-172">
          <mxGeometry width="30" height="30" as="geometry">
            <mxRectangle width="30" height="30" as="alternateBounds" />
          </mxGeometry>
        </mxCell>
        <mxCell id="mup1xXLrEogH3Mq1CVz5-174" value="Address" style="shape=partialRectangle;connectable=0;fillColor=none;top=0;left=0;bottom=0;right=0;align=left;spacingLeft=6;overflow=hidden;whiteSpace=wrap;html=1;labelBackgroundColor=none;strokeColor=#909090;fontColor=#1A1A1A;" vertex="1" parent="mup1xXLrEogH3Mq1CVz5-172">
          <mxGeometry x="30" width="150" height="30" as="geometry">
            <mxRectangle width="150" height="30" as="alternateBounds" />
          </mxGeometry>
        </mxCell>
        <mxCell id="mup1xXLrEogH3Mq1CVz5-175" value="" style="shape=tableRow;horizontal=0;startSize=0;swimlaneHead=0;swimlaneBody=0;fillColor=none;collapsible=0;dropTarget=0;points=[[0,0.5],[1,0.5]];portConstraint=eastwest;top=0;left=0;right=0;bottom=0;labelBackgroundColor=none;strokeColor=#909090;fontColor=#1A1A1A;" vertex="1" parent="mup1xXLrEogH3Mq1CVz5-119">
          <mxGeometry y="210" width="180" height="30" as="geometry" />
        </mxCell>
        <mxCell id="mup1xXLrEogH3Mq1CVz5-176" value="" style="shape=partialRectangle;connectable=0;fillColor=none;top=0;left=0;bottom=0;right=0;editable=1;overflow=hidden;whiteSpace=wrap;html=1;labelBackgroundColor=none;strokeColor=#909090;fontColor=#1A1A1A;" vertex="1" parent="mup1xXLrEogH3Mq1CVz5-175">
          <mxGeometry width="30" height="30" as="geometry">
            <mxRectangle width="30" height="30" as="alternateBounds" />
          </mxGeometry>
        </mxCell>
        <mxCell id="mup1xXLrEogH3Mq1CVz5-177" value="Shift (N/D)" style="shape=partialRectangle;connectable=0;fillColor=none;top=0;left=0;bottom=0;right=0;align=left;spacingLeft=6;overflow=hidden;whiteSpace=wrap;html=1;labelBackgroundColor=none;strokeColor=#909090;fontColor=#1A1A1A;" vertex="1" parent="mup1xXLrEogH3Mq1CVz5-175">
          <mxGeometry x="30" width="150" height="30" as="geometry">
            <mxRectangle width="150" height="30" as="alternateBounds" />
          </mxGeometry>
        </mxCell>
        <mxCell id="mup1xXLrEogH3Mq1CVz5-187" value="&lt;p style=&quot;caret-color: rgb(0, 0, 0); font-weight: 400; text-align: start; text-wrap-mode: wrap;&quot; data-pm-slice=&quot;1 1 [&amp;quot;ordered_list&amp;quot;,{&amp;quot;spread&amp;quot;:true,&amp;quot;startingNumber&amp;quot;:1,&amp;quot;start&amp;quot;:238,&amp;quot;end&amp;quot;:1972},&amp;quot;regular_list_item&amp;quot;,{&amp;quot;start&amp;quot;:1784,&amp;quot;end&amp;quot;:1972}]&quot;&gt;&lt;strong&gt;Departments&lt;/strong&gt;&lt;/p&gt;" style="shape=table;startSize=30;container=1;collapsible=1;childLayout=tableLayout;fixedRows=1;rowLines=0;fontStyle=1;align=center;resizeLast=1;html=1;labelBackgroundColor=none;fillColor=#F5AB50;strokeColor=#909090;fontColor=#1A1A1A;" vertex="1" parent="1">
          <mxGeometry x="800" y="280" width="180" height="150" as="geometry" />
        </mxCell>
        <mxCell id="mup1xXLrEogH3Mq1CVz5-188" value="" style="shape=tableRow;horizontal=0;startSize=0;swimlaneHead=0;swimlaneBody=0;fillColor=none;collapsible=0;dropTarget=0;points=[[0,0.5],[1,0.5]];portConstraint=eastwest;top=0;left=0;right=0;bottom=1;labelBackgroundColor=none;strokeColor=#909090;fontColor=#1A1A1A;" vertex="1" parent="mup1xXLrEogH3Mq1CVz5-187">
          <mxGeometry y="30" width="180" height="30" as="geometry" />
        </mxCell>
        <mxCell id="mup1xXLrEogH3Mq1CVz5-189" value="PK" style="shape=partialRectangle;connectable=0;fillColor=none;top=0;left=0;bottom=0;right=0;fontStyle=1;overflow=hidden;whiteSpace=wrap;html=1;labelBackgroundColor=none;strokeColor=#909090;fontColor=#1A1A1A;" vertex="1" parent="mup1xXLrEogH3Mq1CVz5-188">
          <mxGeometry width="30" height="30" as="geometry">
            <mxRectangle width="30" height="30" as="alternateBounds" />
          </mxGeometry>
        </mxCell>
        <mxCell id="mup1xXLrEogH3Mq1CVz5-190" value="&lt;p style=&quot;caret-color: rgb(0, 0, 0); font-weight: 400; text-decoration-line: none;&quot; data-pm-slice=&quot;1 1 [&amp;quot;ordered_list&amp;quot;,{&amp;quot;spread&amp;quot;:true,&amp;quot;startingNumber&amp;quot;:1,&amp;quot;start&amp;quot;:238,&amp;quot;end&amp;quot;:1972},&amp;quot;regular_list_item&amp;quot;,{&amp;quot;start&amp;quot;:1784,&amp;quot;end&amp;quot;:1972}]&quot;&gt;&lt;strong&gt;Departments ID&lt;/strong&gt;&lt;/p&gt;" style="shape=partialRectangle;connectable=0;fillColor=none;top=0;left=0;bottom=0;right=0;align=left;spacingLeft=6;fontStyle=5;overflow=hidden;whiteSpace=wrap;html=1;labelBackgroundColor=none;strokeColor=#909090;fontColor=#1A1A1A;" vertex="1" parent="mup1xXLrEogH3Mq1CVz5-188">
          <mxGeometry x="30" width="150" height="30" as="geometry">
            <mxRectangle width="150" height="30" as="alternateBounds" />
          </mxGeometry>
        </mxCell>
        <mxCell id="mup1xXLrEogH3Mq1CVz5-191" value="" style="shape=tableRow;horizontal=0;startSize=0;swimlaneHead=0;swimlaneBody=0;fillColor=none;collapsible=0;dropTarget=0;points=[[0,0.5],[1,0.5]];portConstraint=eastwest;top=0;left=0;right=0;bottom=0;labelBackgroundColor=none;strokeColor=#909090;fontColor=#1A1A1A;" vertex="1" parent="mup1xXLrEogH3Mq1CVz5-187">
          <mxGeometry y="60" width="180" height="30" as="geometry" />
        </mxCell>
        <mxCell id="mup1xXLrEogH3Mq1CVz5-192" value="" style="shape=partialRectangle;connectable=0;fillColor=none;top=0;left=0;bottom=0;right=0;editable=1;overflow=hidden;whiteSpace=wrap;html=1;labelBackgroundColor=none;strokeColor=#909090;fontColor=#1A1A1A;" vertex="1" parent="mup1xXLrEogH3Mq1CVz5-191">
          <mxGeometry width="30" height="30" as="geometry">
            <mxRectangle width="30" height="30" as="alternateBounds" />
          </mxGeometry>
        </mxCell>
        <mxCell id="mup1xXLrEogH3Mq1CVz5-193" value="Name" style="shape=partialRectangle;connectable=0;fillColor=none;top=0;left=0;bottom=0;right=0;align=left;spacingLeft=6;overflow=hidden;whiteSpace=wrap;html=1;labelBackgroundColor=none;strokeColor=#909090;fontColor=#1A1A1A;" vertex="1" parent="mup1xXLrEogH3Mq1CVz5-191">
          <mxGeometry x="30" width="150" height="30" as="geometry">
            <mxRectangle width="150" height="30" as="alternateBounds" />
          </mxGeometry>
        </mxCell>
        <mxCell id="mup1xXLrEogH3Mq1CVz5-194" value="" style="shape=tableRow;horizontal=0;startSize=0;swimlaneHead=0;swimlaneBody=0;fillColor=none;collapsible=0;dropTarget=0;points=[[0,0.5],[1,0.5]];portConstraint=eastwest;top=0;left=0;right=0;bottom=0;labelBackgroundColor=none;strokeColor=#909090;fontColor=#1A1A1A;" vertex="1" parent="mup1xXLrEogH3Mq1CVz5-187">
          <mxGeometry y="90" width="180" height="30" as="geometry" />
        </mxCell>
        <mxCell id="mup1xXLrEogH3Mq1CVz5-195" value="" style="shape=partialRectangle;connectable=0;fillColor=none;top=0;left=0;bottom=0;right=0;editable=1;overflow=hidden;whiteSpace=wrap;html=1;labelBackgroundColor=none;strokeColor=#909090;fontColor=#1A1A1A;" vertex="1" parent="mup1xXLrEogH3Mq1CVz5-194">
          <mxGeometry width="30" height="30" as="geometry">
            <mxRectangle width="30" height="30" as="alternateBounds" />
          </mxGeometry>
        </mxCell>
        <mxCell id="mup1xXLrEogH3Mq1CVz5-196" value="HOD (Doctor ID)" style="shape=partialRectangle;connectable=0;fillColor=none;top=0;left=0;bottom=0;right=0;align=left;spacingLeft=6;overflow=hidden;whiteSpace=wrap;html=1;labelBackgroundColor=none;strokeColor=#909090;fontColor=#1A1A1A;" vertex="1" parent="mup1xXLrEogH3Mq1CVz5-194">
          <mxGeometry x="30" width="150" height="30" as="geometry">
            <mxRectangle width="150" height="30" as="alternateBounds" />
          </mxGeometry>
        </mxCell>
        <mxCell id="mup1xXLrEogH3Mq1CVz5-197" value="" style="shape=tableRow;horizontal=0;startSize=0;swimlaneHead=0;swimlaneBody=0;fillColor=none;collapsible=0;dropTarget=0;points=[[0,0.5],[1,0.5]];portConstraint=eastwest;top=0;left=0;right=0;bottom=0;labelBackgroundColor=none;strokeColor=#909090;fontColor=#1A1A1A;" vertex="1" parent="mup1xXLrEogH3Mq1CVz5-187">
          <mxGeometry y="120" width="180" height="30" as="geometry" />
        </mxCell>
        <mxCell id="mup1xXLrEogH3Mq1CVz5-198" value="" style="shape=partialRectangle;connectable=0;fillColor=none;top=0;left=0;bottom=0;right=0;editable=1;overflow=hidden;whiteSpace=wrap;html=1;labelBackgroundColor=none;strokeColor=#909090;fontColor=#1A1A1A;" vertex="1" parent="mup1xXLrEogH3Mq1CVz5-197">
          <mxGeometry width="30" height="30" as="geometry">
            <mxRectangle width="30" height="30" as="alternateBounds" />
          </mxGeometry>
        </mxCell>
        <mxCell id="mup1xXLrEogH3Mq1CVz5-199" value="Staff Assigned" style="shape=partialRectangle;connectable=0;fillColor=none;top=0;left=0;bottom=0;right=0;align=left;spacingLeft=6;overflow=hidden;whiteSpace=wrap;html=1;labelBackgroundColor=none;strokeColor=#909090;fontColor=#1A1A1A;" vertex="1" parent="mup1xXLrEogH3Mq1CVz5-197">
          <mxGeometry x="30" width="150" height="30" as="geometry">
            <mxRectangle width="150" height="30" as="alternateBounds" />
          </mxGeometry>
        </mxCell>
        <mxCell id="mup1xXLrEogH3Mq1CVz5-200" value="" style="edgeStyle=entityRelationEdgeStyle;fontSize=20;html=1;endArrow=ERoneToMany;rounded=0;fontStyle=1;spacing=7;spacingTop=2;endSize=23;startSize=26;jumpSize=23;targetPerimeterSpacing=7;sourcePerimeterSpacing=8;exitX=1;exitY=0.5;exitDx=0;exitDy=0;entryX=-0.001;entryY=0.107;entryDx=0;entryDy=0;entryPerimeter=0;labelBackgroundColor=none;strokeColor=#182E3E;fontColor=default;strokeWidth=4;" edge="1" parent="1" source="mup1xXLrEogH3Mq1CVz5-11" target="mup1xXLrEogH3Mq1CVz5-14">
          <mxGeometry width="100" height="100" relative="1" as="geometry">
            <mxPoint x="80" y="150" as="sourcePoint" />
            <mxPoint x="240" y="-10" as="targetPoint" />
            <Array as="points">
              <mxPoint x="-60" y="320" />
            </Array>
          </mxGeometry>
        </mxCell>
        <mxCell id="mup1xXLrEogH3Mq1CVz5-202" value="" style="fontSize=12;html=1;endArrow=ERoneToMany;rounded=0;strokeColor=#182E3E;fontColor=#1A1A1A;strokeWidth=4;endSize=14;startSize=14;entryX=1;entryY=0.5;entryDx=0;entryDy=0;exitX=0;exitY=0.5;exitDx=0;exitDy=0;" edge="1" parent="1" source="mup1xXLrEogH3Mq1CVz5-31" target="mup1xXLrEogH3Mq1CVz5-24">
          <mxGeometry width="100" height="100" relative="1" as="geometry">
            <mxPoint x="610" y="240" as="sourcePoint" />
            <mxPoint x="420" y="280" as="targetPoint" />
          </mxGeometry>
        </mxCell>
        <mxCell id="mup1xXLrEogH3Mq1CVz5-205" value="" style="edgeStyle=isometricEdgeStyle;fontSize=12;html=1;endArrow=ERzeroToOne;startArrow=ERmandOne;rounded=0;strokeColor=#182E3E;fontColor=#1A1A1A;strokeWidth=3;endSize=12;startSize=12;elbow=vertical;entryX=1.01;entryY=0.12;entryDx=0;entryDy=0;entryPerimeter=0;exitX=0;exitY=0.5;exitDx=0;exitDy=0;" edge="1" parent="1" source="mup1xXLrEogH3Mq1CVz5-41" target="mup1xXLrEogH3Mq1CVz5-230">
          <mxGeometry width="100" height="100" relative="1" as="geometry">
            <mxPoint x="430" y="480" as="sourcePoint" />
            <mxPoint x="400" y="410" as="targetPoint" />
          </mxGeometry>
        </mxCell>
        <mxCell id="mup1xXLrEogH3Mq1CVz5-206" value="1 -- 0/1&lt;br&gt;one room should exist but a patient can or can&#39;t take the room&amp;nbsp;" style="text;html=1;align=center;verticalAlign=middle;whiteSpace=wrap;rounded=0;fontColor=#1A1A1A;" vertex="1" parent="1">
          <mxGeometry x="-130" y="360" width="120" height="100" as="geometry" />
        </mxCell>
        <mxCell id="mup1xXLrEogH3Mq1CVz5-207" value="" style="edgeStyle=isometricEdgeStyle;fontSize=12;html=1;endArrow=ERoneToMany;rounded=0;strokeColor=#182E3E;fontColor=#1A1A1A;strokeWidth=3;endSize=11;startSize=11;shadow=0;exitX=-0.025;exitY=0.081;exitDx=0;exitDy=0;exitPerimeter=0;entryX=1;entryY=0.5;entryDx=0;entryDy=0;" edge="1" parent="1" source="mup1xXLrEogH3Mq1CVz5-8" target="mup1xXLrEogH3Mq1CVz5-94">
          <mxGeometry width="100" height="100" relative="1" as="geometry">
            <mxPoint x="-410" y="190" as="sourcePoint" />
            <mxPoint x="-260" y="260" as="targetPoint" />
            <Array as="points">
              <mxPoint x="-210" y="200" />
            </Array>
          </mxGeometry>
        </mxCell>
        <mxCell id="mup1xXLrEogH3Mq1CVz5-208" value="Adithya, a patient with a unique Patient_ID, visits the hospital today and is billed $7. He returns a month later and is billed $30. Both bills are linked to his Patient_ID." style="text;html=1;align=center;verticalAlign=middle;whiteSpace=wrap;rounded=0;fontColor=#1A1A1A;rotation=0;" vertex="1" parent="1">
          <mxGeometry x="-430" y="10" width="180" height="120" as="geometry" />
        </mxCell>
        <mxCell id="mup1xXLrEogH3Mq1CVz5-209" value="" style="edgeStyle=isometricEdgeStyle;fontSize=12;html=1;endArrow=ERoneToMany;rounded=0;strokeColor=#182E3E;fontColor=#1A1A1A;strokeWidth=3;startArrow=none;startFill=0;endSize=13;startSize=12;entryX=0;entryY=0.5;entryDx=0;entryDy=0;exitX=1;exitY=0.5;exitDx=0;exitDy=0;" edge="1" parent="1" source="mup1xXLrEogH3Mq1CVz5-60" target="mup1xXLrEogH3Mq1CVz5-110">
          <mxGeometry width="100" height="100" relative="1" as="geometry">
            <mxPoint x="360" y="510" as="sourcePoint" />
            <mxPoint x="460" y="410" as="targetPoint" />
            <Array as="points">
              <mxPoint x="310" y="300" />
            </Array>
          </mxGeometry>
        </mxCell>
        <mxCell id="mup1xXLrEogH3Mq1CVz5-214" value="" style="edgeStyle=isometricEdgeStyle;fontSize=12;html=1;endArrow=ERoneToMany;rounded=0;strokeColor=#182E3E;fontColor=#1A1A1A;elbow=vertical;exitX=0.728;exitY=1.113;exitDx=0;exitDy=0;exitPerimeter=0;entryX=0.591;entryY=-0.015;entryDx=0;entryDy=0;entryPerimeter=0;strokeWidth=3;endSize=11;startSize=11;" edge="1" parent="1" source="mup1xXLrEogH3Mq1CVz5-81" target="mup1xXLrEogH3Mq1CVz5-106">
          <mxGeometry width="100" height="100" relative="1" as="geometry">
            <mxPoint x="360" y="510" as="sourcePoint" />
            <mxPoint x="460" y="410" as="targetPoint" />
          </mxGeometry>
        </mxCell>
        <mxCell id="mup1xXLrEogH3Mq1CVz5-215" value="" style="edgeStyle=orthogonalEdgeStyle;fontSize=12;html=1;endArrow=ERoneToMany;rounded=0;strokeColor=#182E3E;fontColor=#1A1A1A;exitX=1;exitY=0.5;exitDx=0;exitDy=0;strokeWidth=3;endSize=11;startSize=12;" edge="1" parent="1" source="mup1xXLrEogH3Mq1CVz5-188">
          <mxGeometry width="100" height="100" relative="1" as="geometry">
            <mxPoint x="1160" y="330" as="sourcePoint" />
            <mxPoint x="1040" y="220" as="targetPoint" />
          </mxGeometry>
        </mxCell>
        <mxCell id="mup1xXLrEogH3Mq1CVz5-217" value="" style="edgeStyle=entityRelationEdgeStyle;fontSize=12;html=1;endArrow=ERoneToMany;rounded=0;strokeColor=#182E3E;fontColor=#1A1A1A;strokeWidth=3;endSize=9;exitX=0;exitY=0.5;exitDx=0;exitDy=0;" edge="1" parent="1" source="mup1xXLrEogH3Mq1CVz5-188" target="mup1xXLrEogH3Mq1CVz5-37">
          <mxGeometry width="100" height="100" relative="1" as="geometry">
            <mxPoint x="800" y="150" as="sourcePoint" />
            <mxPoint x="900" y="50" as="targetPoint" />
            <Array as="points">
              <mxPoint x="1100" y="390" />
            </Array>
          </mxGeometry>
        </mxCell>
        <mxCell id="mup1xXLrEogH3Mq1CVz5-235" value="" style="edgeStyle=entityRelationEdgeStyle;fontSize=12;html=1;endArrow=ERoneToMany;rounded=0;strokeColor=#182E3E;fontColor=#1A1A1A;strokeWidth=3;endSize=9;startSize=9;exitX=0.25;exitY=0;exitDx=0;exitDy=0;entryX=1.056;entryY=0;entryDx=0;entryDy=0;entryPerimeter=0;" edge="1" parent="1" source="mup1xXLrEogH3Mq1CVz5-27" target="mup1xXLrEogH3Mq1CVz5-2">
          <mxGeometry width="100" height="100" relative="1" as="geometry">
            <mxPoint x="597.48" y="-76.17" as="sourcePoint" />
            <mxPoint x="82.51999999999997" y="-169.99999999999994" as="targetPoint" />
            <Array as="points">
              <mxPoint x="367.48" y="-221.17000000000002" />
              <mxPoint x="367.48" y="-191.17000000000002" />
              <mxPoint x="247.48" y="-161.17000000000002" />
              <mxPoint x="237.48" y="-211.17000000000002" />
              <mxPoint x="377.48" y="-211.17000000000002" />
            </Array>
          </mxGeometry>
        </mxCell>
        <mxCell id="mup1xXLrEogH3Mq1CVz5-236" value="" style="edgeStyle=orthogonalEdgeStyle;fontSize=12;html=1;endArrow=ERoneToMany;rounded=0;strokeColor=#182E3E;fontColor=#1A1A1A;elbow=vertical;strokeWidth=3;endSize=9;startSize=10;curved=1;entryX=0.25;entryY=0;entryDx=0;entryDy=0;" edge="1" parent="1" target="mup1xXLrEogH3Mq1CVz5-93">
          <mxGeometry width="100" height="100" relative="1" as="geometry">
            <mxPoint x="660" y="-30" as="sourcePoint" />
            <mxPoint x="-530" y="190" as="targetPoint" />
            <Array as="points">
              <mxPoint x="660" y="-139" />
              <mxPoint x="-389" y="-139" />
              <mxPoint x="-389" y="-130" />
              <mxPoint x="-485" y="-130" />
              <mxPoint x="-485" y="285" />
            </Array>
          </mxGeometry>
        </mxCell>
        <mxCell id="mup1xXLrEogH3Mq1CVz5-240" value="" style="edgeStyle=orthogonalEdgeStyle;rounded=0;orthogonalLoop=1;jettySize=auto;html=1;strokeColor=#182E3E;fontColor=#1A1A1A;" edge="1" parent="1" source="mup1xXLrEogH3Mq1CVz5-238" target="mup1xXLrEogH3Mq1CVz5-239">
          <mxGeometry relative="1" as="geometry" />
        </mxCell>
        <mxCell id="mup1xXLrEogH3Mq1CVz5-238" value="" style="strokeWidth=2;html=1;shape=mxgraph.flowchart.database;whiteSpace=wrap;strokeColor=#909090;fontColor=#1A1A1A;fillColor=#F5AB50;" vertex="1" parent="1">
          <mxGeometry x="340" y="700" width="225" height="240" as="geometry" />
        </mxCell>
        <mxCell id="mup1xXLrEogH3Mq1CVz5-239" value="The Patients info are stored in Db directly after the patient is entered. If the patient has an prior appoinments then that will be displayed such that Doctors, Date/Time.&lt;div&gt;&lt;br&gt;&lt;/div&gt;&lt;div&gt;&lt;br&gt;&lt;/div&gt;&lt;div&gt;accordingly the rooms, surgies, billings Data will be stored such that it can be fetched by the staff members with the ID&#39;s there.&amp;nbsp;&lt;/div&gt;" style="whiteSpace=wrap;html=1;fillColor=#F5AB50;strokeColor=#909090;fontColor=#1A1A1A;strokeWidth=2;fontFamily=Comic Sans MS;" vertex="1" parent="1">
          <mxGeometry x="697.5" y="680" width="332.5" height="320" as="geometry" />
        </mxCell>
      </root>
    </mxGraphModel>
  </diagram>
</mxfile>
